<svg width="646" height="452" viewBox="0 0 646 452" fill="none" xmlns="http://www.w3.org/2000/svg">
<path d="M502.592 63H147.516C144.198 63.004 141.017 64.3249 138.67 66.6731C136.324 69.0213 135.004 72.205 135 75.5259V113.764C135.004 117.085 136.324 120.269 138.67 122.617C141.017 124.965 144.198 126.286 147.516 126.29H502.592C505.911 126.286 509.092 124.965 511.438 122.617C513.785 120.269 515.105 117.085 515.109 113.764V75.5259C515.105 72.205 513.785 69.0213 511.438 66.6731C509.092 64.3249 505.911 63.004 502.592 63ZM513.791 113.764C513.787 116.735 512.605 119.583 510.506 121.684C508.407 123.785 505.561 124.967 502.592 124.971H147.516C144.548 124.967 141.702 123.785 139.603 121.684C137.503 119.583 136.322 116.735 136.318 113.764V75.5259C136.322 72.5549 137.503 69.7068 139.603 67.606C141.702 65.5052 144.548 64.323 147.516 64.3187H502.592C505.561 64.323 508.407 65.5052 510.506 67.606C512.605 69.7068 513.787 72.5549 513.791 75.5259V113.764Z" fill="#CCCCCC"/>
<path d="M502.592 216.609H147.516C144.198 216.605 141.017 215.284 138.67 212.936C136.324 210.588 135.004 207.404 135 204.083V165.846C135.004 162.525 136.324 159.341 138.67 156.993C141.017 154.645 144.198 153.324 147.516 153.32H502.592C505.911 153.324 509.092 154.645 511.438 156.993C513.785 159.341 515.105 162.525 515.109 165.846V204.083C515.105 207.404 513.785 210.588 511.438 212.936C509.092 215.284 505.911 216.605 502.592 216.609ZM147.516 154.639C144.547 154.642 141.701 155.824 139.601 157.925C137.502 160.026 136.321 162.874 136.318 165.846V204.083C136.32 207.055 137.501 209.904 139.601 212.006C141.7 214.107 144.547 215.289 147.516 215.293H502.592C505.561 215.29 508.408 214.108 510.508 212.007C512.607 209.906 513.788 207.057 513.792 204.086V165.846C513.788 162.874 512.607 160.026 510.508 157.925C508.409 155.824 505.562 154.642 502.593 154.639H147.516Z" fill="#CCCCCC"/>
<path d="M195.495 116.447C191.186 116.447 186.974 115.168 183.392 112.772C179.809 110.377 177.017 106.972 175.368 102.988C173.719 99.0044 173.288 94.6208 174.129 90.3917C174.969 86.1626 177.044 82.2779 180.091 79.2289C183.137 76.1799 187.019 74.1035 191.245 73.2623C195.471 72.4211 199.851 72.8528 203.832 74.5029C207.812 76.1531 211.215 78.9474 213.609 82.5327C216.002 86.1179 217.28 90.333 217.28 94.645C217.28 100.427 214.985 105.972 210.899 110.061C206.814 114.15 201.273 116.447 195.495 116.447Z" fill="#6C63FF"/>
<path d="M194.383 102.314C193.842 102.315 193.315 102.14 192.882 101.815L192.855 101.795L187.209 97.4724C186.947 97.2717 186.728 97.0215 186.563 96.736C186.398 96.4505 186.291 96.1353 186.247 95.8083C186.204 95.4814 186.226 95.1491 186.311 94.8305C186.396 94.512 186.543 94.2133 186.744 93.9515C186.944 93.6898 187.194 93.4702 187.479 93.3051C187.765 93.1401 188.08 93.0329 188.406 92.9897C188.733 92.9466 189.065 92.9682 189.383 93.0534C189.702 93.1386 190 93.2857 190.262 93.4863L193.919 96.2934L202.561 85.0096C202.966 84.4814 203.564 84.1358 204.223 84.0486C204.883 83.9614 205.55 84.1399 206.078 84.5448L206.024 84.6199L206.079 84.5448C206.606 84.9505 206.951 85.5488 207.038 86.2087C207.125 86.8685 206.947 87.5359 206.543 88.0645L196.377 101.331C196.142 101.636 195.839 101.883 195.493 102.052C195.147 102.221 194.767 102.308 194.381 102.307L194.383 102.314Z" fill="white"/>
<path d="M195.495 207.447C191.186 207.447 186.974 206.168 183.392 203.772C179.809 201.377 177.017 197.972 175.368 193.988C173.719 190.004 173.288 185.621 174.129 181.392C174.969 177.163 177.044 173.278 180.091 170.229C183.137 167.18 187.019 165.104 191.245 164.262C195.471 163.421 199.851 163.853 203.832 165.503C207.812 167.153 211.215 169.947 213.609 173.533C216.002 177.118 217.28 181.333 217.28 185.645C217.28 191.427 214.985 196.972 210.899 201.061C206.814 205.15 201.273 207.447 195.495 207.447Z" fill="#6C63FF"/>
<path d="M194.383 193.314C193.842 193.315 193.315 193.14 192.882 192.815L192.855 192.795L187.209 188.472C186.947 188.272 186.728 188.022 186.563 187.736C186.398 187.45 186.291 187.135 186.247 186.808C186.204 186.481 186.226 186.149 186.311 185.831C186.396 185.512 186.543 185.213 186.744 184.952C186.944 184.69 187.194 184.47 187.479 184.305C187.765 184.14 188.08 184.033 188.406 183.99C188.733 183.947 189.065 183.968 189.383 184.053C189.702 184.139 190 184.286 190.262 184.486L193.919 187.293L202.561 176.01C202.966 175.481 203.564 175.136 204.223 175.049C204.883 174.961 205.55 175.14 206.078 175.545L206.024 175.62L206.079 175.545C206.606 175.95 206.951 176.549 207.038 177.209C207.125 177.868 206.947 178.536 206.543 179.064L196.377 192.331C196.142 192.636 195.839 192.883 195.493 193.052C195.147 193.221 194.767 193.308 194.381 193.307L194.383 193.314Z" fill="white"/>
<path d="M627.518 202.196C627.518 202.196 625.275 189.786 620.172 191.268C615.068 192.751 601.934 194.268 601.91 188.424C601.886 182.579 614.273 177.413 621.576 178.112C628.88 178.811 641.299 180.95 640.615 191.912C640.067 198.816 637.935 205.5 634.385 211.444L627.518 202.196Z" fill="#2F2E41"/>
<rect x="234" y="77" width="266" height="37" rx="5" fill="#CCCCCC"/>
<rect x="234" y="167" width="266" height="37" rx="5" fill="#CCCCCC"/>
<path d="M633.27 230.6L635.835 231.881C635.835 231.881 649.731 266.696 645.028 275.025C640.325 283.355 625.574 298.947 625.574 298.947L622.795 291.044L634.161 266.425L633.27 230.6Z" fill="#575A89"/>
<path opacity="0.1" d="M633.27 230.6L635.835 231.881C635.835 231.881 649.731 266.696 645.028 275.025C640.325 283.355 625.574 298.947 625.574 298.947L622.795 291.044L634.161 266.425L633.27 230.6Z" fill="black"/>
<path d="M630.491 404.671C630.491 404.671 634.125 413.001 632.201 413.641C630.277 414.282 627.926 414.282 625.574 414.282C623.222 414.282 620.443 413.428 620.016 412.573C619.588 411.719 621.726 406.166 621.726 406.166L630.491 404.671Z" fill="#575A89"/>
<path d="M581.535 408.942C581.535 408.942 583.886 416.418 582.817 416.845C581.748 417.272 578.328 419.194 576.404 418.554C574.48 417.913 571.487 416.418 570.845 415.777C570.204 415.136 570.845 411.719 570.845 411.719L573.838 407.447L581.535 408.942Z" fill="#575A89"/>
<path d="M623.65 297.879L626.714 298.947C626.714 298.947 627.498 306.209 626.643 308.772C625.788 311.335 623.864 329.916 624.933 333.761C626.001 337.605 625.36 343.799 625.36 343.799C625.36 343.799 631.774 364.731 630.491 369.216C629.208 373.701 629.422 380.109 630.705 383.312C631.987 386.516 633.056 387.798 632.415 390.361C631.774 392.924 630.491 394.205 631.774 396.341C633.056 398.477 635.622 399.118 634.339 401.04C633.056 402.962 631.774 404.457 632.201 405.739C632.629 407.02 620.871 409.37 619.802 407.447C619.802 407.447 623.222 404.457 619.802 402.749C616.381 401.04 617.45 394.632 617.45 394.632C617.45 394.632 611.464 370.07 611.678 368.148C611.892 366.226 602.272 336.324 602.272 336.324C602.272 336.324 588.162 379.041 587.307 380.963C586.452 382.885 588.376 387.584 587.307 388.866C586.238 390.147 587.734 393.351 586.238 394.632C584.741 395.914 588.803 400.613 586.238 402.321C583.672 404.03 582.39 409.37 582.604 410.438C582.817 411.505 571.914 410.224 571.914 408.729C571.914 407.234 572.128 405.952 571.059 403.389C569.99 400.826 569.349 399.118 570.204 398.263C571.059 397.409 571.701 396.341 570.845 393.351C569.99 390.361 572.128 381.177 571.487 379.468C570.845 377.759 571.059 366.226 571.059 366.226C571.059 366.226 573.197 349.353 572.556 346.576C571.914 343.799 572.556 343.159 572.77 342.091C572.983 341.023 574.266 329.489 575.121 327.781C575.976 326.072 577.045 296.811 581.962 295.316C586.879 293.821 623.65 297.879 623.65 297.879Z" fill="#2F2E41"/>
<path d="M625.36 412.36C625.36 412.36 633.056 411.078 633.484 412.36C633.911 413.641 635.194 423.68 632.201 423.893C629.208 424.107 624.077 424.748 623.222 422.825C622.367 420.903 618.305 419.622 618.305 419.622C618.305 419.622 612.319 417.913 612.319 415.991C612.319 414.068 612.533 411.078 613.602 410.865C614.671 410.651 618.947 408.302 618.947 407.447C618.947 406.593 625.36 412.36 625.36 412.36Z" fill="#2F2E41"/>
<path d="M577.259 415.777C577.259 415.777 582.817 414.068 584.1 415.136C585.383 416.204 587.093 427.951 584.1 427.738C581.107 427.524 573.197 428.806 572.769 427.097C572.342 425.388 566.57 424.961 566.57 424.961C566.57 424.961 560.37 421.971 560.798 418.767C561.225 415.564 561.867 414.496 564.432 414.282C566.997 414.068 568.921 411.078 569.135 410.865C569.349 410.651 571.234 409.09 571.467 410.832C571.701 412.573 574.48 416.418 577.259 415.777Z" fill="#2F2E41"/>
<path d="M594.789 208.814C601.991 208.814 607.83 202.981 607.83 195.786C607.83 188.59 601.991 182.757 594.789 182.757C587.587 182.757 581.748 188.59 581.748 195.786C581.748 202.981 587.587 208.814 594.789 208.814Z" fill="#A0616A"/>
<path d="M606.12 198.776C606.12 198.776 606.975 213.086 610.182 214.368C613.388 215.649 593.934 215.649 593.934 215.649C593.934 215.649 593.72 206.679 590.941 204.543C588.162 202.407 606.12 198.776 606.12 198.776Z" fill="#A0616A"/>
<path d="M611.25 211.164C611.25 211.164 597.996 206.251 593.293 213.94C593.293 213.94 578.328 220.989 577.259 225.26C576.19 229.532 586.238 261.57 586.238 261.57C586.238 261.57 586.238 288.054 584.1 290.831C581.962 293.607 577.9 296.597 580.679 297.238C583.459 297.879 627.07 302.578 626.857 299.801C626.643 297.025 623.864 294.675 626.857 292.966C629.85 291.258 627.284 289.336 629.208 283.782C631.132 278.229 635.835 232.309 635.835 232.309C635.835 232.309 632.629 226.542 631.987 225.901C631.346 225.26 611.25 211.164 611.25 211.164Z" fill="#575A89"/>
<path d="M572.983 304.714C572.983 304.714 564.646 323.509 571.914 326.072C579.183 328.635 578.755 306.209 578.755 306.209L572.983 304.714Z" fill="#A0616A"/>
<path d="M601.044 198.209C600.288 196.696 599.157 194.95 597.467 195.042C596.612 195.089 595.875 195.62 595.113 196.01C594.351 196.4 593.375 196.642 592.679 196.145C591.66 195.418 591.976 193.693 591.065 192.835C590.07 191.899 588.069 192.422 587.427 191.216C587.084 190.573 587.361 189.774 587.212 189.06C586.171 189.149 585.123 189.027 584.131 188.703C583.166 188.312 582.33 187.406 582.357 186.366C582.386 186.012 582.485 185.667 582.649 185.351C582.813 185.036 583.038 184.756 583.312 184.529C584.626 183.335 586.527 183.106 588.149 182.382C589.439 181.806 590.562 180.908 591.83 180.284C594.013 179.212 596.532 179.004 598.957 179.189C602.635 179.47 606.355 180.689 609.022 183.235C611.689 185.781 613.101 189.797 611.95 193.299C611.299 195.283 609.917 196.951 609.146 198.892C608.674 200.22 608.346 201.595 608.169 202.994L607.628 206.311C607.712 205.795 606.578 204.5 606.206 204.192C605.394 203.52 604.213 203.748 603.46 203.125C602.345 202.205 601.7 199.522 601.044 198.209Z" fill="#2F2E41"/>
<path opacity="0.1" d="M582.176 223.765L578.755 225.901C578.755 225.901 573.197 259.434 573.838 264.133C574.48 268.831 571.273 295.316 572.342 297.452C573.411 299.587 573.838 300.015 573.838 301.296C573.838 302.578 570.845 307.276 572.769 308.131C574.693 308.985 581.748 310.48 581.748 308.131C581.748 305.781 580.466 302.578 582.817 301.083C585.169 299.587 586.879 289.976 586.879 289.976C586.879 289.976 587.948 280.151 589.017 278.229C590.086 276.307 591.582 269.259 591.582 266.268C591.582 263.278 594.148 251.104 592.651 244.91C591.155 238.716 590.727 222.057 582.176 223.765Z" fill="black"/>
<path d="M580.679 223.124L577.259 225.26C577.259 225.26 571.701 258.793 572.342 263.492C572.983 268.191 569.777 294.675 570.845 296.811C571.914 298.947 572.342 299.374 572.342 300.655C572.342 301.937 569.349 306.636 571.273 307.49C573.197 308.344 580.252 309.84 580.252 307.49C580.252 305.141 578.969 301.937 581.321 300.442C583.672 298.947 585.383 289.335 585.383 289.335C585.383 289.335 586.452 279.511 587.52 277.588C588.589 275.666 590.086 268.618 590.086 265.628C590.086 262.637 592.651 250.463 591.155 244.269C589.658 238.075 589.231 221.416 580.679 223.124Z" fill="#575A89"/>
<path d="M56.9204 414.614C56.9204 414.614 53.4549 428.08 56.6054 428.666C59.7559 429.251 75.1933 429.062 78.9739 429.648C82.7544 430.233 90.6307 429.251 90.6307 426.616C90.6307 423.982 82.4394 422.225 82.4394 422.225C82.4394 422.225 70.7826 416.37 70.4675 416.077C70.1525 415.785 56.9204 414.614 56.9204 414.614Z" fill="#2F2E41"/>
<path d="M60.6309 318.458C60.6309 318.458 61.7609 330.358 61.7609 331.408C61.7609 332.458 54.9808 387.761 56.4875 398.962C57.9942 410.162 56.348 413.74 56.348 415.84C56.348 417.94 68.5411 417.163 68.5411 417.163L81.7248 339.809L74.9446 316.708L60.6309 318.458Z" fill="#2F2E41"/>
<path d="M61.3311 417.561C61.3311 417.561 58.1806 428.1 61.3311 428.686C64.4816 429.271 79.919 428.015 83.6996 428.601C87.4802 429.186 95.3564 429.272 95.3564 426.637C95.3564 424.002 87.1652 422.245 87.1652 422.245C87.1652 422.245 75.5083 416.39 75.1933 416.098C74.8782 415.805 61.3311 417.561 61.3311 417.561Z" fill="#2F2E41"/>
<path d="M57.2408 304.457C57.2408 304.457 52.7207 314.607 57.9942 319.858C63.2677 325.108 69.2945 335.609 69.2945 336.309C69.2945 337.009 58.7476 406.662 60.2543 411.213C61.7609 415.763 61.3843 418.563 61.0076 419.263C60.631 419.963 64.7744 423.813 69.2945 423.813C73.8146 423.813 80.5948 420.663 81.3481 417.863C82.1014 415.063 80.2181 390.911 80.5948 386.361C80.9714 381.811 96.0385 309.007 94.1552 307.257C92.2718 305.507 57.2408 304.457 57.2408 304.457Z" fill="#2F2E41"/>
<path d="M85.8683 223.953C92.9414 223.953 98.6753 218.624 98.6753 212.052C98.6753 205.479 92.9414 200.151 85.8683 200.151C78.7951 200.151 73.0612 205.479 73.0612 212.052C73.0612 218.624 78.7951 223.953 85.8683 223.953Z" fill="#9F616A"/>
<path d="M77.9581 218.002C77.9581 218.002 80.5948 230.953 78.7114 232.353C76.828 233.753 93.0251 235.853 93.0251 235.853C93.0251 235.853 94.9085 218.702 95.2852 216.952C95.6619 215.202 77.9581 218.002 77.9581 218.002Z" fill="#9F616A"/>
<path d="M95.2851 234.803C95.2851 234.803 97.7148 222.47 79.2577 225.971C79.2577 225.971 62.4056 238.811 63.159 250.711C63.9123 262.612 57.2408 297.106 57.9942 299.557C58.7476 302.007 53.4741 305.157 55.7342 306.207C57.9942 307.257 98.6753 313.557 99.8053 306.207C100.935 298.857 99.4286 280.306 100.182 276.805C100.935 273.305 100.182 243.904 97.9219 240.404C95.6618 236.903 95.2851 234.803 95.2851 234.803Z" fill="#6C63FF"/>
<path d="M87.375 320.208C87.375 320.208 81.7248 340.159 88.8817 340.159C96.0385 340.159 95.6619 319.508 95.6619 319.508L87.375 320.208Z" fill="#9F616A"/>
<path d="M91.0862 214.038C90.9228 215.042 89.2549 215.459 86.8066 215.263L86.8029 215.263C85.7661 215.172 84.7382 215.009 83.7281 214.774C82.2002 214.424 81.3393 215.688 80.7841 217.436C79.8727 220.321 79.8039 224.534 79.0021 225.083C73.4049 227.958 56.866 208.683 65.341 203.693C68.3595 201.916 78.5204 195.28 85.5404 196.62C92.5604 197.961 89.7185 206.058 89.7185 206.058C89.7185 206.058 89.976 207.121 90.2681 208.486C90.6838 210.205 90.965 211.951 91.1093 213.708C91.1093 213.819 91.1015 213.929 91.0862 214.038V214.038Z" fill="#2F2E41"/>
<path d="M91.8951 238.303C91.8951 238.303 79.0881 237.603 77.9581 255.104C76.828 272.605 77.2047 289.056 77.2047 289.406C77.2047 289.756 82.4782 323.008 87.375 323.008C92.2718 323.008 96.0386 322.308 97.1686 320.558C98.2986 318.808 94.1552 293.606 94.1552 293.606C94.1552 293.606 92.2718 267.005 95.2851 258.604C98.2985 250.204 98.6753 239.353 91.8951 238.303Z" fill="#6C63FF"/>
<path opacity="0.1" d="M77.4001 259.917L73.6851 297.316L86.0687 323.207L78.0193 296.74L77.4001 259.342" fill="black"/>
<path opacity="0.1" d="M95.3564 263.945L96.3025 308.034L92.8797 284.082L95.3564 263.945Z" fill="black"/>
</svg>
