<svg width="529" height="389" viewBox="0 0 529 389" fill="none" xmlns="http://www.w3.org/2000/svg">
<g opacity="0.1" clip-path="url(#clip0_11182_203)">
<path d="M471.809 208.427C469.503 235.024 457.897 260.727 441.34 281.984C440.647 282.873 439.947 283.753 439.238 284.626C437.644 286.589 436.008 288.516 434.331 290.405C432.279 292.732 430.168 295.006 427.996 297.227C426.229 299.055 424.42 300.843 422.57 302.592C421.142 303.957 419.698 305.294 418.237 306.605C400.667 322.466 380.482 335.555 359.685 347.001C319.099 369.333 274.612 386.249 228.34 388.713C182.074 391.17 133.775 377.933 99.8447 346.409C54.1163 303.926 41.354 233.067 59.9197 173.507C72.268 133.883 97.4714 98.0367 131.772 74.6251C165.777 51.4172 208.674 40.9708 249.273 47.7993C281.683 28.1228 324.111 27.7463 359.345 42.3106C378.146 50.0836 395.018 61.6413 409.82 75.6068C416.598 82.0158 422.941 88.8697 428.806 96.1228C429.405 96.8575 429.999 97.5984 430.586 98.3454C433.046 101.451 435.425 104.62 437.724 107.853C441.024 112.49 444.158 117.23 447.124 122.072C447.94 123.406 448.75 124.745 449.541 126.097C450.072 127.005 450.61 127.919 451.135 128.839C451.147 128.858 451.156 128.878 451.16 128.9C459.386 143.354 466.11 158.776 469.615 174.896C470.233 177.749 470.752 180.613 471.154 183.503V183.509C471.506 185.96 471.772 188.423 471.951 190.899C472.373 196.736 472.326 202.598 471.809 208.427Z" fill="#3F3D56"/>
<path opacity="0.3" d="M351.07 248.636L259.316 172.278L348.454 251.694C348.627 251.985 348.866 252.23 349.152 252.409C349.439 252.589 349.764 252.698 350.101 252.727C350.438 252.756 350.777 252.704 351.09 252.576C351.402 252.448 351.68 252.247 351.9 251.99C352.12 251.733 352.275 251.428 352.353 251.099C352.431 250.77 352.429 250.428 352.348 250.1C352.267 249.772 352.109 249.468 351.886 249.214C351.664 248.959 351.385 248.761 351.07 248.636Z" fill="#F0F0F0"/>
<path d="M140.653 209.779C171.032 209.779 195.659 185.178 195.659 154.831C195.659 124.484 171.032 99.8827 140.653 99.8827C110.275 99.8827 85.6484 124.484 85.6484 154.831C85.6484 185.178 110.275 209.779 140.653 209.779Z" fill="#F2F2F2"/>
<path d="M189.478 151.127C189.479 157.694 188.184 164.197 185.669 170.265C183.153 176.332 179.466 181.846 174.817 186.489C170.168 191.133 164.649 194.817 158.575 197.33C152.502 199.843 145.992 201.136 139.417 201.136C133.558 201.132 127.744 200.109 122.236 198.11C113.625 194.976 106.039 189.542 100.304 182.4C94.5702 175.257 90.9074 166.68 89.7148 157.602C88.5221 148.524 89.8454 139.294 93.5405 130.915C97.2356 122.536 103.161 115.331 110.671 110.083C118.182 104.835 126.989 101.747 136.135 101.153C145.281 100.559 154.415 102.483 162.542 106.716C170.669 110.949 177.478 117.328 182.227 125.158C186.977 132.989 189.485 141.971 189.478 151.127Z" fill="white"/>
<path d="M130.765 149.892C139.298 149.892 146.216 142.981 146.216 134.457C146.216 125.932 139.298 119.022 130.765 119.022C122.232 119.022 115.314 125.932 115.314 134.457C115.314 142.981 122.232 149.892 130.765 149.892Z" fill="#E4E4E4"/>
<path d="M187.525 137.254C184.177 138.863 180.36 139.213 176.774 138.239C173.188 137.266 170.073 135.033 168.001 131.952C165.928 128.871 165.037 125.147 165.49 121.462C165.943 117.778 167.71 114.38 170.468 111.891C178.661 118.362 184.625 127.23 187.525 137.254Z" fill="#F2F2F2"/>
<path d="M156.104 173.353C159.176 173.353 161.667 170.865 161.667 167.796C161.667 164.727 159.176 162.24 156.104 162.24C153.032 162.24 150.542 164.727 150.542 167.796C150.542 170.865 153.032 173.353 156.104 173.353Z" fill="#E4E4E4"/>
<path d="M133.237 199.283C133.237 199.771 133.172 200.257 133.046 200.728C129.355 200.267 125.728 199.389 122.236 198.11C122.526 196.77 123.302 195.583 124.415 194.78C125.528 193.977 126.899 193.613 128.264 193.758C129.63 193.904 130.893 194.549 131.811 195.569C132.729 196.589 133.237 197.912 133.237 199.283Z" fill="#F2F2F2"/>
<path d="M100.481 148.657C100.481 151.476 99.4084 154.19 97.4807 156.248C95.5529 158.307 92.914 159.557 90.0983 159.745C88.8239 152.406 89.1954 144.876 91.1861 137.698C93.783 138.131 96.1422 139.469 97.8442 141.476C99.5461 143.482 100.481 146.027 100.481 148.657Z" fill="#F2F2F2"/>
<path d="M374.811 131.002C376.075 131.002 377.099 129.979 377.099 128.717C377.099 127.454 376.075 126.431 374.811 126.431C373.547 126.431 372.523 127.454 372.523 128.717C372.523 129.979 373.547 131.002 374.811 131.002Z" fill="#6C63FF"/>
<path d="M353.702 75.3912C354.441 75.3912 355.039 74.7932 355.039 74.0557C355.039 73.3181 354.441 72.7202 353.702 72.7202C352.964 72.7202 352.366 73.3181 352.366 74.0557C352.366 74.7932 352.964 75.3912 353.702 75.3912Z" fill="#F0F0F0"/>
<path d="M139.245 337.167C139.983 337.167 140.581 336.569 140.581 335.831C140.581 335.094 139.983 334.496 139.245 334.496C138.506 334.496 137.908 335.094 137.908 335.831C137.908 336.569 138.506 337.167 139.245 337.167Z" fill="#F0F0F0"/>
<path d="M361.291 206.06C362.03 206.06 362.628 205.462 362.628 204.725C362.628 203.987 362.03 203.389 361.291 203.389C360.553 203.389 359.955 203.987 359.955 204.725C359.955 205.462 360.553 206.06 361.291 206.06Z" fill="#F0F0F0"/>
<path d="M188.783 218.672C190.046 218.672 191.071 217.649 191.071 216.387C191.071 215.124 190.046 214.101 188.783 214.101C187.519 214.101 186.494 215.124 186.494 216.387C186.494 217.649 187.519 218.672 188.783 218.672Z" fill="#6C63FF"/>
<path d="M105.966 267.929C111.934 267.929 116.771 263.096 116.771 257.135C116.771 251.173 111.934 246.341 105.966 246.341C99.9985 246.341 95.1609 251.173 95.1609 257.135C95.1609 263.096 99.9985 267.929 105.966 267.929Z" fill="#6C63FF"/>
<path d="M165.202 270.488C165.94 270.488 166.539 269.89 166.539 269.153C166.539 268.415 165.94 267.817 165.202 267.817C164.464 267.817 163.865 268.415 163.865 269.153C163.865 269.89 164.464 270.488 165.202 270.488Z" fill="#F0F0F0"/>
<path d="M301.169 61.8085C301.908 61.8085 302.506 61.2105 302.506 60.473C302.506 59.7354 301.908 59.1375 301.169 59.1375C300.431 59.1375 299.833 59.7354 299.833 60.473C299.833 61.2105 300.431 61.8085 301.169 61.8085Z" fill="#F0F0F0"/>
<path d="M221.443 346.428C222.181 346.428 222.78 345.83 222.78 345.092C222.78 344.355 222.181 343.757 221.443 343.757C220.705 343.757 220.106 344.355 220.106 345.092C220.106 345.83 220.705 346.428 221.443 346.428Z" fill="#F0F0F0"/>
<path d="M201.666 74.1564C202.404 74.1564 203.003 73.5584 203.003 72.8209C203.003 72.0833 202.404 71.4854 201.666 71.4854C200.928 71.4854 200.329 72.0833 200.329 72.8209C200.329 73.5584 200.928 74.1564 201.666 74.1564Z" fill="#F0F0F0"/>
<path d="M236.276 138.983C237.014 138.983 237.613 138.385 237.613 137.647C237.613 136.91 237.014 136.312 236.276 136.312C235.538 136.312 234.939 136.91 234.939 137.647C234.939 138.385 235.538 138.983 236.276 138.983Z" fill="#F0F0F0"/>
<path d="M183.298 298.052C184.036 298.052 184.634 297.454 184.634 296.717C184.634 295.979 184.036 295.381 183.298 295.381C182.559 295.381 181.961 295.979 181.961 296.717C181.961 297.454 182.559 298.052 183.298 298.052Z" fill="#F0F0F0"/>
<path d="M339.66 306.696C340.399 306.696 340.997 306.098 340.997 305.36C340.997 304.623 340.399 304.025 339.66 304.025C338.922 304.025 338.323 304.623 338.323 305.36C338.323 306.098 338.922 306.696 339.66 306.696Z" fill="#F0F0F0"/>
<path d="M270.44 228.904C271.179 228.904 271.777 228.306 271.777 227.568C271.777 226.831 271.179 226.233 270.44 226.233C269.702 226.233 269.104 226.831 269.104 227.568C269.104 228.306 269.702 228.904 270.44 228.904Z" fill="#F0F0F0"/>
<path d="M305.668 138.764C306.407 138.764 307.005 138.166 307.005 137.429C307.005 136.691 306.407 136.093 305.668 136.093C304.93 136.093 304.331 136.691 304.331 137.429C304.331 138.166 304.93 138.764 305.668 138.764Z" fill="#F0F0F0"/>
<path d="M369.715 183.332C371.179 183.332 372.366 182.146 372.366 180.684C372.366 179.221 371.179 178.036 369.715 178.036C368.252 178.036 367.065 179.221 367.065 180.684C367.065 182.146 368.252 183.332 369.715 183.332Z" fill="#FF6584"/>
<path d="M262.178 95.6615C263.642 95.6615 264.828 94.476 264.828 93.0135C264.828 91.5511 263.642 90.3656 262.178 90.3656C260.714 90.3656 259.527 91.5511 259.527 93.0135C259.527 94.476 260.714 95.6615 262.178 95.6615Z" fill="#FF6584"/>
<path d="M262.178 277.793C263.642 277.793 264.828 276.608 264.828 275.145C264.828 273.683 263.642 272.497 262.178 272.497C260.714 272.497 259.527 273.683 259.527 275.145C259.527 276.608 260.714 277.793 262.178 277.793Z" fill="#FF6584"/>
<path d="M427.323 290.405C426.29 290.406 425.286 290.743 424.462 291.364C423.638 291.986 423.039 292.858 422.755 293.85C422.63 294.275 422.568 294.716 422.57 295.159V302.592C424.418 300.845 426.227 299.057 427.996 297.227C430.166 295.004 432.277 292.73 434.331 290.405H427.323Z" fill="#6C63FF"/>
<path d="M444.151 329.029C436.171 329.029 427.424 328.728 417.911 328.125C368.707 325.004 304.973 314.152 238.449 297.569C171.925 280.986 110.559 260.653 65.6556 240.315C43.7818 230.408 26.9938 221.03 15.7584 212.442C3.86308 203.349 -1.34012 195.424 0.292774 188.886C3.47441 176.15 31.6463 173.364 54.7193 173.269L54.7272 175.121C23.0418 175.251 4.34895 180.299 2.09198 189.335C-0.783027 200.843 22.6642 218.81 66.4213 238.628C111.226 258.921 172.479 279.216 238.898 295.773C305.317 312.329 368.933 323.162 418.029 326.277C465.975 329.319 495.125 324.463 497.999 312.955C500.386 303.4 484.651 289.324 453.693 273.319L454.545 271.674C477.04 283.303 503.151 299.983 499.798 313.403C498.165 319.941 489.845 324.495 475.068 326.938C466.644 328.331 456.298 329.029 444.151 329.029Z" fill="#6C63FF"/>
<path d="M441.636 190.949C475.94 190.949 503.749 163.169 503.749 128.9C503.749 94.632 475.94 66.8521 441.636 66.8521C407.332 66.8521 379.524 94.632 379.524 128.9C379.524 163.169 407.332 190.949 441.636 190.949Z" fill="white"/>
<path d="M441.636 65.9259C429.168 65.9259 416.98 69.6193 406.613 76.539C396.247 83.4587 388.167 93.294 383.395 104.801C378.624 116.308 377.376 128.97 379.808 141.186C382.24 153.402 388.244 164.623 397.061 173.43C405.877 182.237 417.109 188.235 429.338 190.665C441.566 193.094 454.241 191.847 465.76 187.081C477.279 182.315 487.125 174.243 494.052 163.887C500.979 153.531 504.676 141.355 504.676 128.9C504.706 120.622 503.095 112.42 499.938 104.766C496.78 97.112 492.138 90.158 486.278 84.3043C480.419 78.4507 473.457 73.8131 465.796 70.6589C458.134 67.5047 449.923 65.8962 441.636 65.9259ZM441.636 190.022C429.535 190.022 417.705 186.438 407.643 179.722C397.582 173.005 389.739 163.459 385.108 152.291C380.477 141.122 379.266 128.832 381.626 116.976C383.987 105.119 389.815 94.2285 398.372 85.6804C406.929 77.1323 417.831 71.311 429.7 68.9526C441.568 66.5942 453.871 67.8046 465.051 72.4308C476.231 77.057 485.787 84.8911 492.51 94.9426C499.233 104.994 502.822 116.811 502.822 128.9C502.853 136.936 501.292 144.898 498.228 152.328C495.164 159.757 490.658 166.508 484.971 172.19C479.283 177.872 472.525 182.373 465.088 185.433C457.65 188.494 449.68 190.054 441.636 190.022Z" fill="#2F2E41"/>
<path d="M387.129 143.762C386.844 143.761 386.569 143.663 386.348 143.483C386.128 143.303 385.976 143.053 385.919 142.775C384.142 133.735 384.463 124.407 386.857 115.51C389.25 106.612 393.653 98.381 399.726 91.4478C399.945 91.2045 400.251 91.0577 400.578 91.0394C400.904 91.0211 401.225 91.133 401.469 91.3504C401.713 91.5678 401.861 91.8731 401.881 92.1993C401.9 92.5255 401.789 92.8461 401.572 93.0908C395.752 99.7349 391.533 107.623 389.239 116.149C386.945 124.676 386.638 133.614 388.34 142.278C388.377 142.457 388.374 142.643 388.33 142.821C388.286 142.999 388.203 143.165 388.087 143.307C387.971 143.449 387.825 143.563 387.659 143.642C387.493 143.721 387.312 143.761 387.129 143.762H387.129Z" fill="#2F2E41"/>
<path d="M441.597 186.547C463.401 186.547 481.076 168.89 481.076 147.109C481.076 125.328 463.401 107.672 441.597 107.672C419.794 107.672 402.119 125.328 402.119 147.109C402.119 168.89 419.794 186.547 441.597 186.547Z" fill="#6C63FF"/>
<path d="M429.05 161.998C426.491 161.927 423.306 161.838 420.853 160.048C420.122 159.493 419.522 158.785 419.094 157.974C418.666 157.163 418.421 156.268 418.376 155.352C418.331 154.701 418.438 154.049 418.688 153.446C418.938 152.843 419.324 152.307 419.816 151.878C421.097 150.796 422.969 150.542 424.985 151.134L422.896 135.881L424.43 135.671L426.886 153.603L425.605 153.016C424.12 152.336 422.082 151.989 420.815 153.059C420.504 153.338 420.262 153.686 420.107 154.074C419.952 154.462 419.889 154.881 419.923 155.298C419.96 155.979 420.145 156.645 420.463 157.249C420.781 157.853 421.225 158.382 421.766 158.799C423.676 160.192 426.214 160.372 429.094 160.452L429.05 161.998Z" fill="#2F2E41"/>
<path d="M415.311 137.196H406.972V138.743H415.311V137.196Z" fill="#2F2E41"/>
<path d="M441.629 137.196H433.291V138.743H441.629V137.196Z" fill="#2F2E41"/>
<path d="M443.256 196.295H407.471C406.137 196.296 404.859 196.826 403.915 197.768C402.972 198.711 402.442 199.988 402.441 201.321V280.551C402.444 285.92 403.918 291.186 406.702 295.779C409.487 300.371 413.476 304.115 418.238 306.605C419.702 305.296 421.146 303.959 422.57 302.592C424.418 300.845 426.227 299.057 427.996 297.227C430.166 295.004 432.277 292.73 434.331 290.405C436.012 288.516 437.648 286.589 439.238 284.626C439.949 283.755 440.65 282.875 441.34 281.984C457.897 260.727 469.503 235.024 471.809 208.427C468.113 204.588 463.678 201.534 458.772 199.45C453.865 197.365 448.587 196.292 443.256 196.295Z" fill="#2F2E41"/>
<path d="M444.56 212.829C443.708 211.996 442.7 211.34 441.594 210.898C440.488 210.456 439.305 210.238 438.113 210.255C436.043 210.27 434.042 211.003 432.452 212.329C432.198 212.534 431.957 212.755 431.729 212.99L402.441 242.995L381.199 264.758C380.876 265.083 380.609 265.459 380.408 265.87C380.089 266.506 379.926 267.208 379.932 267.919C379.938 268.504 380.06 269.082 380.292 269.619C380.523 270.156 380.859 270.643 381.279 271.049L382.113 271.864L388.17 277.761L388.176 277.754C388.99 278.414 390.008 278.77 391.056 278.761C391.642 278.754 392.22 278.632 392.758 278.401C393.296 278.17 393.782 277.835 394.19 277.415L395.173 276.415L402.206 269.21L402.441 268.969L444.72 225.652C446.401 223.93 447.328 221.612 447.298 219.208C447.267 216.803 446.283 214.509 444.56 212.829L444.56 212.829Z" fill="#6C63FF"/>
<path d="M444.262 128.71C445.568 125.953 444.229 123.007 441.936 121.246C439.047 119.026 435.31 119.393 432.023 120.444C428.425 121.594 424.907 123.664 421.02 123.545C419.634 123.52 418.288 123.078 417.159 122.276C416.029 121.474 415.168 120.351 414.688 119.052C412.606 113.718 414.958 107.757 418.582 103.711C420.628 101.395 423.157 99.5542 425.991 98.3184C428.825 97.0826 431.895 96.4819 434.987 96.5583C438.516 96.7332 441.946 97.7776 444.973 99.5984C448 101.419 450.529 103.96 452.334 106.994C452.462 107.201 452.666 107.351 452.902 107.413C453.138 107.475 453.389 107.444 453.602 107.326C456.353 106.098 459.32 105.426 462.332 105.35C465.344 105.275 468.342 105.796 471.151 106.885C475.365 108.601 478.957 111.557 481.449 115.361C483.942 119.164 485.217 123.635 485.106 128.18C485.075 129.373 486.929 129.372 486.96 128.18C487.076 121.827 484.729 115.674 480.409 111.009C478.216 108.683 475.579 106.819 472.652 105.529C469.726 104.239 466.571 103.548 463.372 103.497C459.68 103.418 456.019 104.181 452.666 105.727L453.935 106.059C452.264 103.249 450.019 100.822 447.346 98.936C444.673 97.0501 441.633 95.7478 438.423 95.1139C435.244 94.5214 431.975 94.6187 428.838 95.3993C425.7 96.1799 422.767 97.6255 420.238 99.638C415.478 103.359 411.871 109.134 412.095 115.326C412.192 118.006 412.99 120.757 414.852 122.754C417.238 125.312 420.799 125.754 424.089 125.099C428.462 124.228 432.455 121.355 437.013 121.443C437.906 121.444 438.789 121.634 439.603 122C440.417 122.367 441.144 122.902 441.736 123.57C442.74 124.702 443.346 126.33 442.661 127.776C442.154 128.847 443.752 129.788 444.262 128.71L444.262 128.71Z" fill="#2F2E41"/>
<path d="M148.368 351.518C126.366 351.518 105.912 350.764 87.6013 349.242C63.667 347.253 44.7008 344.054 31.2301 339.737C16.968 335.165 9.40158 329.447 8.741 322.741C7.45364 309.678 33.0508 297.598 54.7508 289.764L55.3809 291.506C25.5812 302.264 9.6729 313.292 10.5861 322.56C11.7491 334.364 39.876 343.416 87.7549 347.396C136.781 351.471 201.298 350.027 269.424 343.328C337.55 336.63 401.112 325.481 448.402 311.936C494.585 298.708 520.406 284.351 519.243 272.547C518.277 262.746 498.722 254.77 464.181 250.086L464.43 248.251C489.528 251.654 519.732 258.6 521.088 272.365C521.749 279.071 515.443 286.153 502.347 293.414C489.978 300.273 472 307.104 448.913 313.716C401.519 327.292 337.84 338.462 269.606 345.171C226.801 349.38 185.402 351.518 148.368 351.518Z" fill="#6C63FF"/>
<path d="M518.195 279.042C524.162 279.042 529 274.209 529 268.248C529 262.287 524.162 257.454 518.195 257.454C512.227 257.454 507.39 262.287 507.39 268.248C507.39 274.209 512.227 279.042 518.195 279.042Z" fill="#6C63FF"/>
<path d="M204.852 21.5879C210.819 21.5879 215.657 16.7553 215.657 10.794C215.657 4.83262 210.819 0 204.852 0C198.884 0 194.046 4.83262 194.046 10.794C194.046 16.7553 198.884 21.5879 204.852 21.5879Z" fill="#E6E6E6"/>
<path d="M12.0248 278.424C17.9924 278.424 22.83 273.592 22.83 267.63C22.83 261.669 17.9924 256.837 12.0248 256.837C6.05734 256.837 1.21973 261.669 1.21973 267.63C1.21973 273.592 6.05734 278.424 12.0248 278.424Z" fill="#E6E6E6"/>
<path d="M78.7725 73.5845C82.4255 73.5845 85.3869 70.6262 85.3869 66.977C85.3869 63.3277 82.4255 60.3694 78.7725 60.3694C75.1195 60.3694 72.1581 63.3277 72.1581 66.977C72.1581 70.6262 75.1195 73.5845 78.7725 73.5845Z" fill="#FF6584"/>
<path d="M47.8708 324.247C51.5238 324.247 54.4852 321.289 54.4852 317.64C54.4852 313.99 51.5238 311.032 47.8708 311.032C44.2177 311.032 41.2563 313.99 41.2563 317.64C41.2563 321.289 44.2177 324.247 47.8708 324.247Z" fill="#FF6584"/>
<path d="M499.036 216.203C502.689 216.203 505.65 213.245 505.65 209.595C505.65 205.946 502.689 202.988 499.036 202.988C495.383 202.988 492.421 205.946 492.421 209.595C492.421 213.245 495.383 216.203 499.036 216.203Z" fill="#FF6584"/>
<path d="M398.914 380.295C404.882 380.295 409.719 375.462 409.719 369.501C409.719 363.539 404.882 358.707 398.914 358.707C392.947 358.707 388.109 363.539 388.109 369.501C388.109 375.462 392.947 380.295 398.914 380.295Z" fill="#E6E6E6"/>
</g>
<defs>
<clipPath id="clip0_11182_203">
<rect width="529" height="389" fill="white"/>
</clipPath>
</defs>
</svg>
