<svg width="525" height="416" viewBox="0 0 525 416" fill="none" xmlns="http://www.w3.org/2000/svg">
<path d="M486.958 405.372L477.283 405.371L472.68 368.023L486.959 368.023L486.958 405.372Z" fill="#FFB6B6"/>
<path d="M486.7 402.207L476.377 398.01L476.072 397.885L470.372 402.207C467.244 402.207 464.236 403.415 461.977 405.58C459.717 407.745 458.38 410.7 458.245 413.828C458.229 414 458.229 414.18 458.229 414.359V414.758H489.425V402.207H486.7Z" fill="#2F2E41"/>
<path d="M464.3 396.36L455.174 399.574L438.446 365.872L451.916 361.129L464.3 396.36Z" fill="#FFB6B6"/>
<path d="M463.008 393.461L451.878 392.931L451.549 392.915L447.606 398.885C444.655 399.924 442.218 402.063 440.805 404.856C439.392 407.649 439.111 410.88 440.02 413.876C440.062 414.043 440.122 414.213 440.182 414.382L440.314 414.758L469.741 404.395L465.578 392.556L463.008 393.461Z" fill="#2F2E41"/>
<path d="M490.376 244.334C499.227 243.991 488.263 314.584 488.263 314.584C488.263 314.584 491.47 376.562 490.791 379.815C490.111 383.067 490.705 391.84 490.705 391.84C488.971 388.681 471.08 391.065 471.08 391.065L468.646 328.25L456.22 277.921L438.993 311.657L455.504 363.441C455.504 363.441 462.191 369.634 461.48 372.081C460.769 374.528 443.254 380.047 440.035 380.172C436.817 380.297 438.27 376.208 438.114 372.181C437.958 368.154 422.813 330.835 417.486 318.138C412.158 305.44 416.3 287.536 419.019 274.526C421.738 261.516 436.045 237.1 436.045 237.1C453.803 217.054 481.525 244.678 490.376 244.334Z" fill="#2F2E41"/>
<path d="M432.579 203.192L454.741 179.064L436.603 164.74L427.643 184.567L386.991 198.007C385.621 197.219 384.051 196.847 382.473 196.936C380.895 197.025 379.377 197.571 378.105 198.509C376.832 199.446 375.859 200.734 375.305 202.216C374.75 203.697 374.639 205.307 374.984 206.851C375.328 208.395 376.114 209.805 377.246 210.909C378.377 212.013 379.805 212.764 381.356 213.07C382.906 213.376 384.512 213.224 385.978 212.633C387.444 212.041 388.706 211.035 389.61 209.738L432.579 203.192Z" fill="#FFB6B6"/>
<path d="M473.205 148.677C477.222 157.642 452.712 183.255 452.712 183.255C446.009 188.68 444.947 202.26 436.638 203.772C414.225 207.85 428.165 203.582 422.375 205.811C416.927 207.908 421.945 189.958 418.3 188.817C416.216 188.165 427.809 180.661 427.809 180.661C427.809 180.661 438.256 160.155 444.68 149.518C446.441 146.477 448.941 143.932 451.949 142.118C454.957 140.305 458.374 139.282 461.883 139.146C461.883 139.146 469.188 139.711 473.205 148.677Z" fill="#E6E6E6"/>
<path d="M465.607 127.048C474.931 127.048 482.489 119.483 482.489 110.152C482.489 100.82 474.931 93.2559 465.607 93.2559C456.284 93.2559 448.725 100.82 448.725 110.152C448.725 119.483 456.284 127.048 465.607 127.048Z" fill="#FFB6B6"/>
<path d="M457.166 138.215C453.529 140.379 451.354 144.355 450.105 148.401C447.793 155.891 446.401 163.636 445.96 171.464L441.156 218.165L431.884 241.157C451.713 239.435 495.684 247.521 495.684 247.521C495.684 247.521 497.318 246.976 495.684 245.341C494.05 243.706 492.46 245.154 494.094 243.519C495.727 241.884 494.601 243.706 494.057 242.071C493.512 240.435 494.057 241.526 494.601 240.981C495.146 240.435 490.385 235.53 490.385 235.53L494.742 206.888L500.188 149.115C493.653 140.94 480.51 136.12 480.51 136.12L477.114 130.003L460.135 131.362L457.166 138.215Z" fill="#E6E6E6"/>
<path d="M506.584 202.805L502.394 178.09L487.815 180.734L489.096 202.353L482.715 247.352C481.229 247.89 479.931 248.849 478.98 250.112C478.029 251.376 477.466 252.889 477.36 254.467C477.253 256.045 477.608 257.62 478.38 259C479.152 260.38 480.309 261.505 481.709 262.239C483.11 262.972 484.693 263.282 486.266 263.13C487.839 262.978 489.334 262.372 490.569 261.384C491.804 260.397 492.725 259.071 493.219 257.569C493.714 256.067 493.762 254.453 493.356 252.924L506.584 202.805Z" fill="#FFB6B6"/>
<path d="M494.54 144.973C503.974 147.691 507.69 182.96 507.69 182.96C511.964 199.982 503.876 207.15 501.824 207.075C495.99 206.862 492.759 201.865 489.535 203.914C487.691 205.086 487.347 191.621 487.347 191.621C487.347 191.621 480.732 179.093 476.764 167.316C475.581 164.007 475.253 160.452 475.811 156.983C476.37 153.513 477.796 150.241 479.958 147.472C479.958 147.472 485.105 142.254 494.54 144.973Z" fill="#E6E6E6"/>
<path d="M484.925 104.988C484.869 102.244 484.558 98.7325 482.638 95.9323C481.017 93.5766 477.747 91.7098 474.699 92.6432C474.734 92.0333 474.598 91.4258 474.308 90.8883C474.018 90.3508 473.585 89.9044 473.056 89.5986C471.888 89.0005 470.599 88.6756 469.287 88.6485C466.195 88.3596 462.992 88.0596 459.861 88.6541C456.347 89.3208 453.471 91.132 451.978 93.6266L451.945 93.7043L451.64 95.1822C451.599 95.3804 451.516 95.5675 451.396 95.7305C451.276 95.8936 451.123 96.0287 450.946 96.1267C450.769 96.2262 450.572 96.2852 450.369 96.2996C450.167 96.314 449.964 96.2834 449.774 96.2101C449.567 96.1323 449.343 96.11 449.125 96.1454C448.906 96.1807 448.701 96.2725 448.529 96.4117C448.357 96.5509 448.224 96.7326 448.143 96.9389C448.063 97.1452 448.038 97.3689 448.07 97.588L448.153 98.1769L447.271 98.0102C447.049 97.9672 446.82 97.9843 446.607 98.0595C446.395 98.1348 446.206 98.2655 446.06 98.4383C445.915 98.611 445.818 98.8194 445.78 99.0421C445.742 99.2647 445.764 99.4935 445.844 99.7048L446.088 100.377C445.906 100.379 445.726 100.419 445.559 100.492C445.392 100.566 445.242 100.672 445.117 100.805C444.939 100.999 444.826 101.244 444.796 101.505C444.766 101.767 444.82 102.031 444.95 102.26C445.94 103.951 447.342 105.361 449.025 106.361C449.782 106.817 450.598 107.167 451.451 107.4C451.628 107.45 451.812 107.494 452 107.533C458.816 109.003 465.843 109.214 472.734 108.155C472.328 109.516 472.172 110.939 472.274 112.356C472.333 113.159 472.612 113.93 473.078 114.587C473.545 115.243 474.183 115.759 474.922 116.078C475.236 116.184 475.559 116.263 475.887 116.311C476.202 116.362 476.512 116.438 476.814 116.539C477.261 116.703 477.656 116.982 477.961 117.347C478.265 117.713 478.467 118.153 478.547 118.622C478.627 119.091 478.582 119.573 478.416 120.019C478.25 120.465 477.97 120.859 477.603 121.162C477.603 121.162 479.057 122.367 479.24 122.306C479.955 121.99 480.553 121.458 480.95 120.784C483.72 116.795 485.058 111.483 484.925 104.988Z" fill="#2F2E41"/>
<path d="M42.6504 359.826L40.6672 369.784C40.5178 370.546 40.3616 371.32 40.1918 372.089C38.5342 371.745 36.8156 371.841 35.2067 372.367C36.4832 374.193 37.6271 376.108 38.6297 378.097C37.38 381.952 35.5463 385.513 32.4764 388.09C30.4261 389.772 27.9772 390.897 25.366 391.357C22.7548 391.816 20.0693 391.595 17.5686 390.713L17.6569 390.319C14.3561 383.909 16.1491 375.827 20.2513 369.907C22.3436 366.986 24.8226 364.363 27.6203 362.11C30.3913 359.799 33.3865 357.726 36.3545 355.68C37.0211 355.221 37.8092 354.971 38.6182 354.963C39.4272 354.955 40.2202 355.188 40.896 355.633C41.5719 356.078 42.0998 356.715 42.4123 357.462C42.7247 358.209 42.8077 359.032 42.6504 359.826V359.826Z" fill="#E4E4E4"/>
<path d="M18.2749 414.674C17.4401 408.588 16.5817 402.425 17.1671 396.274C17.6874 390.812 19.352 385.476 22.7424 381.102C24.5419 378.784 26.7316 376.798 29.2129 375.233C29.8602 374.826 30.4551 375.851 29.8113 376.258C25.518 378.973 22.1974 382.983 20.328 387.709C18.2633 392.965 17.9319 398.695 18.2905 404.277C18.5058 407.654 18.9615 411.007 19.4213 414.358C19.4583 414.509 19.436 414.67 19.359 414.805C19.282 414.941 19.1561 415.042 19.007 415.088C18.8554 415.129 18.6937 415.108 18.5571 415.031C18.4205 414.953 18.3201 414.825 18.2776 414.673L18.2749 414.674Z" fill="#F2F2F2"/>
<path d="M369.44 415.194H114.779C108.743 415.188 102.957 412.785 98.6886 408.513C94.4205 404.242 92.0198 398.45 92.0129 392.409V22.7855C92.0198 16.7445 94.4205 10.9529 98.6886 6.68124C102.957 2.40962 108.743 0.0068222 114.779 0H369.44C375.476 0.006824 381.263 2.40962 385.531 6.68124C389.799 10.9529 392.2 16.7445 392.207 22.7855V392.409C392.2 398.45 389.799 404.242 385.531 408.513C381.263 412.785 375.476 415.188 369.44 415.194V415.194Z" fill="#3F3D56"/>
<path d="M369.888 400.657H114.331C112.47 400.655 110.687 399.914 109.371 398.597C108.055 397.28 107.315 395.495 107.313 393.633V21.5615C107.315 19.6993 108.055 17.914 109.371 16.5972C110.687 15.2804 112.47 14.5397 114.331 14.5376H369.888C371.749 14.5397 373.533 15.2804 374.849 16.5972C376.164 17.914 376.904 19.6993 376.906 21.5615V393.633C376.904 395.495 376.164 397.28 374.849 398.597C373.533 399.914 371.749 400.655 369.888 400.657V400.657Z" fill="white"/>
<path d="M241.141 8.91638C242.211 8.91638 243.078 8.04855 243.078 6.97803C243.078 5.9075 242.211 5.03967 241.141 5.03967C240.072 5.03967 239.205 5.9075 239.205 6.97803C239.205 8.04855 240.072 8.91638 241.141 8.91638Z" fill="white"/>
<path d="M327.286 83.1503H156.135C155.955 83.1503 155.782 83.0786 155.655 82.9512C155.527 82.8237 155.456 82.6508 155.456 82.4705C155.456 82.2902 155.527 82.1174 155.655 81.9899C155.782 81.8624 155.955 81.7908 156.135 81.7908H327.286C327.466 81.7908 327.639 81.8624 327.766 81.9899C327.894 82.1174 327.965 82.2902 327.965 82.4705C327.965 82.6508 327.894 82.8237 327.766 82.9512C327.639 83.0786 327.466 83.1503 327.286 83.1503Z" fill="#3F3D56"/>
<path d="M524.321 416H0.679172C0.499044 416 0.326294 415.928 0.198924 415.801C0.0715549 415.673 0 415.501 0 415.32C0 415.14 0.0715549 414.967 0.198924 414.84C0.326294 414.712 0.499044 414.641 0.679172 414.641H524.321C524.501 414.641 524.674 414.712 524.801 414.84C524.928 414.967 525 415.14 525 415.32C525 415.501 524.928 415.673 524.801 415.801C524.674 415.928 524.501 416 524.321 416Z" fill="#CACACA"/>
<path d="M475.059 167.614L481.574 178.795C481.944 179.424 482.513 179.687 483.119 179.687C484.025 179.687 484.967 179.025 484.967 177.9L485 155.541C485 154.417 484.094 153.722 483.185 153.722C482.58 153.722 481.977 154.02 481.608 154.647L475.059 165.795C474.892 166.06 474.823 166.391 474.823 166.687C474.825 167.02 474.892 167.316 475.059 167.614Z" fill="#2FC18C"/>
<path d="M468.309 171.418L474.858 182.565C475.025 182.863 475.128 183.195 475.128 183.49C475.128 184.451 474.255 185.277 473.28 185.277C472.977 185.277 472.675 185.211 472.374 185.045L452.727 173.831C452.089 173.467 451.821 172.871 451.821 172.31C451.821 171.385 452.527 170.458 453.669 170.458L466.733 170.523C467.401 170.525 468.007 170.857 468.309 171.418Z" fill="#2FC18C"/>
<path d="M466.698 162.752H453.631C452.489 162.752 451.817 161.86 451.817 160.965C451.817 160.369 452.086 159.775 452.723 159.411L472.403 148.263C472.708 148.099 473.044 148 473.347 148C474.322 148 475.161 148.826 475.161 149.82C475.161 150.118 475.061 150.416 474.892 150.712L468.276 161.86C467.94 162.421 467.368 162.752 466.698 162.752Z" fill="#2FC18C"/>
</svg>
