<svg width="246" height="202" viewBox="0 0 246 202" fill="none" xmlns="http://www.w3.org/2000/svg">
<g clip-path="url(#clip0_11182_120)">
<path d="M126.169 47.9516H125.061V17.5788C125.061 12.9166 123.207 8.44538 119.907 5.14871C116.608 1.85205 112.132 2.29306e-09 107.466 2.29306e-09H43.0582C40.7477 -3.72827e-05 38.4597 0.454615 36.3251 1.338C34.1904 2.22138 32.2507 3.5162 30.6169 5.14851C28.9831 6.78083 27.687 8.71869 26.8028 10.8514C25.9185 12.9842 25.4634 15.27 25.4634 17.5785V184.206C25.4634 186.514 25.9185 188.8 26.8027 190.933C27.6869 193.066 28.9829 195.003 30.6167 196.636C32.2505 198.268 34.1901 199.563 36.3248 200.446C38.4595 201.33 40.7474 201.785 43.0579 201.785H107.465C112.132 201.785 116.607 199.932 119.906 196.636C123.206 193.339 125.06 188.868 125.06 184.206V69.5714H126.168L126.169 47.9516Z" fill="#3F3D56"/>
<path d="M121.472 16.4014V185.383C121.472 188.917 120.066 192.307 117.565 194.807C115.063 197.307 111.671 198.712 108.133 198.713H42.4035C38.8641 198.714 35.4695 197.309 32.9663 194.81C30.463 192.31 29.0561 188.919 29.0551 185.383V16.4014C29.0561 12.8653 30.4629 9.47445 32.9661 6.9746C35.4692 4.47476 38.8637 3.07065 42.4029 3.07111H50.3763C49.9848 4.03302 49.8358 5.07629 49.9423 6.10921C50.0489 7.14214 50.4078 8.1331 50.9875 8.99499C51.5671 9.85688 52.3498 10.5633 53.2668 11.0522C54.1837 11.5411 55.2068 11.7974 56.2461 11.7988H93.7195C94.7588 11.7974 95.7819 11.5411 96.6988 11.0522C97.6158 10.5633 98.3985 9.85688 98.9781 8.99499C99.5578 8.1331 99.9167 7.14214 100.023 6.10921C100.13 5.07629 99.9808 4.03302 99.5893 3.07111H108.13C111.668 3.07171 115.061 4.47598 117.563 6.97521C120.065 9.47443 121.471 12.864 121.472 16.3988V16.4014Z" fill="white"/>
<path d="M106.214 162.461H45.5111C43.3279 162.459 41.2348 161.591 39.6911 160.049C38.1473 158.506 37.279 156.415 37.2765 154.234V68.9151C37.2765 48.1999 54.1445 31.3468 74.8783 31.3468H106.214C108.397 31.3493 110.49 32.2168 112.034 33.7592C113.578 35.3015 114.446 37.3927 114.448 39.5739V154.234C114.446 156.415 113.578 158.506 112.034 160.049C110.49 161.591 108.397 162.459 106.214 162.461Z" fill="#E6E6E6"/>
<path d="M41.875 182.999C44.2886 182.999 46.2452 181.044 46.2452 178.632C46.2452 176.221 44.2886 174.266 41.875 174.266C39.4614 174.266 37.5048 176.221 37.5048 178.632C37.5048 181.044 39.4614 182.999 41.875 182.999Z" fill="#E6E6E6"/>
<path d="M109.936 182.999C112.35 182.999 114.306 181.044 114.306 178.632C114.306 176.221 112.35 174.266 109.936 174.266C107.523 174.266 105.566 176.221 105.566 178.632C105.566 181.044 107.523 182.999 109.936 182.999Z" fill="#E6E6E6"/>
<path d="M110.529 162.293L107.819 165.243L95.1425 156.207L99.1411 151.853L110.529 162.293Z" fill="#FFB6B6"/>
<path d="M114.081 164.165L105.346 173.676L105.225 173.565C104.243 172.664 103.659 171.41 103.601 170.079C103.544 168.748 104.018 167.448 104.92 166.466L104.92 166.466L105.197 163.519L109.493 161.487L110.256 160.657L114.081 164.165Z" fill="#2F2E41"/>
<path d="M112.3 195.211L108.293 195.21L106.387 179.769L112.301 179.769L112.3 195.211Z" fill="#FFB6B6"/>
<path d="M113.322 199.091L100.402 199.091V198.928C100.402 197.595 100.932 196.317 101.875 195.375C102.818 194.433 104.097 193.903 105.43 193.903H105.431L107.791 192.114L112.194 193.903L113.322 193.904L113.322 199.091Z" fill="#2F2E41"/>
<path d="M92.9499 117.259C92.9499 117.259 68.4718 140.872 83.9465 148.18H88.7294C88.7294 148.18 90.1667 143.079 93.4572 138.776C93.9091 138.185 95.602 138.305 96.0722 137.73C98.9427 134.214 102.055 131.194 104.204 131.314L105.611 147.618L104.917 152.397C104.48 155.405 104.595 158.468 105.256 161.435L104.767 180.507L113.349 180.512C113.349 180.512 113.696 176.042 113.986 170.452C114.064 168.954 114.708 167.911 114.77 166.316C114.918 162.495 114.427 158.046 114.333 154.927L120.804 120.632L92.9499 117.259Z" fill="#2F2E41"/>
<path d="M104.256 67.2288L100.264 72.5633L90.6984 78.1849L96.325 92.8021L96.5384 103.678L96.0147 104.99L96.6063 107.139C96.6063 107.139 96.3333 109.653 94.8781 111.52C92.3337 114.784 88.4484 118.332 92.3861 119.226C98.5759 120.632 120.522 123.724 121.647 121.194C122.036 120.319 121.988 116.618 121.758 112.152C121.715 111.317 120.792 110.408 120.738 109.533C120.697 108.876 121.528 108.258 121.483 107.592C120.981 100.169 120.24 92.5213 120.24 92.5213L122.443 72.0554L113.633 69.7841L112.644 67.2651L104.256 67.2288Z" fill="#6C63FF"/>
<path d="M82.7711 146.778L84.0795 148.43C84.0795 148.43 96.1127 156.841 96.5259 157.627L98.4276 159.424L103.029 154.51L100.636 151.514C98.7211 149.116 96.247 147.223 93.4303 146.002V146.002L89.763 142.751L82.7711 146.778Z" fill="#2F2E41"/>
<path d="M90.4171 123.171L92.6084 101.979L93.1868 93.2576L87.0534 92.1495C87.0534 92.1495 86.135 98.1453 85.3315 101.664C84.5386 105.136 86.3878 122.705 86.4368 123.169C85.9864 123.571 85.6688 124.101 85.5262 124.687C85.3835 125.274 85.4225 125.89 85.638 126.454C85.8534 127.018 86.2352 127.504 86.7327 127.846C87.2303 128.189 87.8202 128.372 88.4245 128.373C89.0287 128.373 89.6188 128.19 90.1167 127.848C90.6146 127.506 90.9968 127.021 91.2128 126.457C91.4288 125.893 91.4683 125.277 91.3262 124.69C91.1842 124.103 90.8671 123.574 90.4171 123.171V123.171Z" fill="#FFB9B9"/>
<path d="M82.4926 105.539L93.0806 108.225L93.007 105.255L93.8106 104.404L95.4162 96.0004L97.7198 91.078L97.121 74.2446L91.2703 77.3449L91.2631 77.3504C90.2414 78.4733 89.387 79.7374 88.726 81.1038C86.5204 85.5836 84.4016 95.451 83.2925 101.182C83.2545 101.302 83.1809 101.408 83.0815 101.486C82.5314 101.991 82.1723 102.67 82.065 103.408C81.9577 104.146 82.1088 104.899 82.4926 105.539L82.4926 105.539Z" fill="#6C63FF"/>
<path d="M145.369 110.95C145.369 110.95 132.479 97.3726 132.359 97.1167C131.459 90.2853 128.869 87.2719 128.481 87.599L121.797 89.9126C121.797 89.9126 123.785 96.2027 125.131 99.9389C126.417 103.509 141.242 112.229 141.489 112.66C141.223 113.246 141.142 113.898 141.256 114.531C141.369 115.165 141.673 115.748 142.126 116.205C142.579 116.662 143.16 116.971 143.793 117.091C144.425 117.211 145.079 117.136 145.668 116.877C146.257 116.617 146.753 116.185 147.091 115.637C147.429 115.09 147.593 114.453 147.56 113.81C147.528 113.168 147.301 112.55 146.91 112.04C146.518 111.529 145.981 111.149 145.369 110.95H145.369Z" fill="#FFB9B9"/>
<path d="M116.399 72.5227C116.399 72.5227 122.961 69.3099 125.506 75.6199C126.901 79.1823 130.469 87.8279 132.247 93.1499C132.259 93.1838 132.275 93.2159 132.296 93.2454C132.771 93.9514 133.028 94.7819 133.033 95.6329C133.033 95.6948 133.039 95.7567 133.053 95.8172C133.053 95.8172 125.842 97.2206 123.698 100.997L122.847 100.074L122.696 99.4282L116.475 82.8444L116.399 72.5227Z" fill="#6C63FF"/>
<path d="M223.551 98.2763H146.732C146.048 98.2755 145.392 98.0035 144.908 97.52C144.424 97.0364 144.151 96.3808 144.151 95.6969V84.4564C144.151 83.7725 144.424 83.1169 144.908 82.6333C145.392 82.1498 146.048 81.8777 146.732 81.877H223.551C224.235 81.8777 224.891 82.1498 225.375 82.6333C225.859 83.1169 226.132 83.7725 226.132 84.4564V95.6969C226.132 96.3808 225.859 97.0364 225.375 97.52C224.891 98.0035 224.235 98.2755 223.551 98.2763V98.2763Z" fill="#E6E6E6"/>
<path d="M216.087 96.5365H148.474C147.79 96.5357 147.134 96.2637 146.65 95.7802C146.166 95.2966 145.893 94.641 145.893 93.9571V86.1976C145.893 85.5138 146.166 84.8581 146.65 84.3746C147.134 83.891 147.79 83.619 148.474 83.6182H221.809C222.494 83.619 223.15 83.891 223.634 84.3746C224.118 84.8581 224.39 85.5138 224.391 86.1976V88.2398C224.389 90.4395 223.513 92.5483 221.956 94.1037C220.399 95.6591 218.289 96.5341 216.087 96.5365V96.5365Z" fill="white"/>
<path d="M192.764 89.277H161.889C161.713 89.277 161.543 89.2069 161.419 89.0822C161.294 88.9574 161.224 88.7882 161.224 88.6118C161.224 88.4354 161.294 88.2662 161.419 88.1414C161.543 88.0167 161.713 87.9466 161.889 87.9466H192.764C192.941 87.9466 193.11 88.0167 193.235 88.1414C193.36 88.2662 193.43 88.4354 193.43 88.6118C193.43 88.7882 193.36 88.9574 193.235 89.0822C193.11 89.2069 192.941 89.277 192.764 89.277V89.277Z" fill="#6C63FF"/>
<path d="M208.394 91.9978H161.889C161.713 91.9978 161.543 91.9277 161.419 91.803C161.294 91.6782 161.224 91.509 161.224 91.3326C161.224 91.1561 161.294 90.987 161.419 90.8622C161.543 90.7374 161.713 90.6674 161.889 90.6674H208.394C208.571 90.6674 208.74 90.7374 208.865 90.8622C208.99 90.987 209.06 91.1561 209.06 91.3326C209.06 91.509 208.99 91.6782 208.865 91.803C208.74 91.9277 208.571 91.9978 208.394 91.9978V91.9978Z" fill="#E6E6E6"/>
<path d="M223.551 122.125H146.732C146.048 122.125 145.392 121.853 144.908 121.369C144.424 120.886 144.151 120.23 144.151 119.546V108.305C144.151 107.622 144.424 106.966 144.908 106.482C145.392 105.999 146.048 105.727 146.732 105.726H223.551C224.235 105.727 224.891 105.999 225.375 106.482C225.859 106.966 226.132 107.622 226.132 108.305V119.546C226.132 120.23 225.859 120.886 225.375 121.369C224.891 121.853 224.235 122.125 223.551 122.125V122.125Z" fill="#E6E6E6"/>
<path d="M216.087 120.386H148.474C147.79 120.385 147.134 120.113 146.65 119.629C146.166 119.146 145.893 118.49 145.893 117.806V110.047C145.893 109.363 146.166 108.707 146.65 108.224C147.134 107.74 147.79 107.468 148.474 107.467H221.809C222.494 107.468 223.15 107.74 223.634 108.224C224.118 108.707 224.39 109.363 224.391 110.047V112.089C224.389 114.289 223.513 116.397 221.956 117.953C220.399 119.508 218.289 120.383 216.087 120.386Z" fill="white"/>
<path d="M192.764 113.126H161.889C161.802 113.126 161.715 113.109 161.635 113.076C161.554 113.042 161.48 112.993 161.419 112.931C161.357 112.87 161.308 112.796 161.274 112.715C161.241 112.635 161.224 112.548 161.224 112.461C161.224 112.374 161.241 112.287 161.274 112.206C161.308 112.126 161.357 112.052 161.419 111.991C161.48 111.929 161.554 111.88 161.635 111.846C161.715 111.813 161.802 111.796 161.889 111.796H192.764C192.941 111.796 193.11 111.866 193.235 111.991C193.36 112.115 193.43 112.284 193.43 112.461C193.43 112.637 193.36 112.807 193.235 112.931C193.11 113.056 192.941 113.126 192.764 113.126V113.126Z" fill="#6C63FF"/>
<path d="M208.394 115.847H161.889C161.802 115.847 161.715 115.83 161.635 115.796C161.554 115.763 161.48 115.714 161.419 115.652C161.357 115.59 161.308 115.517 161.274 115.436C161.241 115.356 161.224 115.269 161.224 115.182C161.224 115.094 161.241 115.008 161.274 114.927C161.308 114.846 161.357 114.773 161.419 114.711C161.48 114.65 161.554 114.601 161.635 114.567C161.715 114.534 161.802 114.517 161.889 114.517H208.394C208.571 114.517 208.74 114.587 208.865 114.711C208.99 114.836 209.06 115.005 209.06 115.182C209.06 115.358 208.99 115.527 208.865 115.652C208.74 115.777 208.571 115.847 208.394 115.847V115.847Z" fill="#E6E6E6"/>
<path d="M223.551 145.975H146.732C146.048 145.974 145.392 145.702 144.908 145.218C144.424 144.735 144.151 144.079 144.151 143.395V132.155C144.151 131.471 144.424 130.815 144.908 130.332C145.392 129.848 146.048 129.576 146.732 129.575H223.551C224.235 129.576 224.891 129.848 225.375 130.332C225.859 130.815 226.132 131.471 226.132 132.155V143.395C226.132 144.079 225.859 144.735 225.375 145.218C224.891 145.702 224.235 145.974 223.551 145.975V145.975Z" fill="#E6E6E6"/>
<path d="M216.087 144.235H148.474C147.79 144.234 147.134 143.962 146.65 143.478C146.166 142.995 145.893 142.339 145.893 141.655V133.896C145.893 133.212 146.166 132.556 146.65 132.073C147.134 131.589 147.79 131.317 148.474 131.317H221.809C222.494 131.317 223.15 131.589 223.634 132.073C224.118 132.556 224.39 133.212 224.391 133.896V135.938C224.389 138.138 223.513 140.247 221.956 141.802C220.399 143.357 218.289 144.232 216.087 144.235Z" fill="white"/>
<path d="M192.764 136.975H161.889C161.713 136.975 161.543 136.905 161.419 136.781C161.294 136.656 161.224 136.487 161.224 136.31C161.224 136.134 161.294 135.965 161.419 135.84C161.543 135.715 161.713 135.645 161.889 135.645H192.764C192.941 135.645 193.11 135.715 193.235 135.84C193.36 135.965 193.43 136.134 193.43 136.31C193.43 136.487 193.36 136.656 193.235 136.781C193.11 136.905 192.941 136.975 192.764 136.975Z" fill="#6C63FF"/>
<path d="M208.394 139.696H161.889C161.713 139.696 161.543 139.626 161.419 139.501C161.294 139.377 161.224 139.207 161.224 139.031C161.224 138.854 161.294 138.685 161.419 138.56C161.543 138.436 161.713 138.366 161.889 138.366H208.394C208.571 138.366 208.74 138.436 208.865 138.56C208.99 138.685 209.06 138.854 209.06 139.031C209.06 139.207 208.99 139.377 208.865 139.501C208.74 139.626 208.571 139.696 208.394 139.696V139.696Z" fill="#E6E6E6"/>
<path d="M108.462 65.5164C112.899 65.5164 116.496 61.9226 116.496 57.4895C116.496 53.0563 112.899 49.4625 108.462 49.4625C104.024 49.4625 100.427 53.0563 100.427 57.4895C100.427 61.9226 104.024 65.5164 108.462 65.5164Z" fill="#FFB9B9"/>
<path d="M102.554 62.6518C102.458 62.6522 102.362 62.6368 102.271 62.6062C101.912 62.4491 101.612 62.1829 101.414 61.8456C100.031 59.8579 99.3631 57.2078 99.4293 53.9688C99.4573 52.5985 99.6125 50.8465 100.573 49.4499C101.381 48.2756 103.015 47.3437 104.537 47.8115C104.52 47.5073 104.588 47.2042 104.733 46.9361C104.878 46.6681 105.094 46.4455 105.359 46.2933C105.935 45.9404 106.63 45.8755 107.242 45.818C108.789 45.6731 110.387 45.5234 111.953 45.8199C113.709 46.1527 115.145 47.0569 115.892 48.3006L115.907 48.3397L116.059 49.0768C116.08 49.1759 116.121 49.2693 116.182 49.3508C116.242 49.4322 116.319 49.4997 116.407 49.5486C116.496 49.5974 116.594 49.6265 116.695 49.6338C116.796 49.6411 116.897 49.6264 116.992 49.5908C117.096 49.5519 117.207 49.5407 117.317 49.5581C117.426 49.5756 117.528 49.6211 117.614 49.6904C117.701 49.7596 117.767 49.85 117.808 49.9528C117.848 50.0555 117.861 50.1671 117.845 50.2764L117.803 50.5695L118.244 50.487C118.355 50.4664 118.469 50.4754 118.575 50.5132C118.681 50.5509 118.775 50.6161 118.847 50.7019C118.92 50.7877 118.968 50.8912 118.987 51.0019C119.007 51.1125 118.996 51.2263 118.958 51.3316L118.833 51.6687C118.924 51.6693 119.014 51.6886 119.098 51.7254C119.182 51.7622 119.257 51.8157 119.319 51.8827C119.408 51.9786 119.465 52.1007 119.48 52.2309C119.495 52.3611 119.468 52.4927 119.402 52.6064C118.909 53.4497 118.209 54.1536 117.368 54.6518C116.908 54.9281 116.405 55.1256 115.881 55.2361C112.475 55.9704 108.963 56.0759 105.52 55.5474C105.724 56.226 105.802 56.936 105.751 57.6427C105.641 58.5264 105.122 59.2556 104.428 59.5005C104.27 59.5518 104.109 59.5907 103.945 59.617C103.788 59.6414 103.634 59.6789 103.483 59.7291C103.26 59.8109 103.063 59.95 102.911 60.1325C102.759 60.3149 102.658 60.5342 102.617 60.7681C102.577 61.0021 102.6 61.2424 102.682 61.465C102.765 61.6876 102.905 61.8845 103.088 62.0358L103.43 61.6797L103.318 62.1324C103.295 62.2205 103.254 62.3028 103.197 62.3738C103.139 62.4448 103.068 62.5031 102.987 62.5447C102.854 62.6157 102.705 62.6525 102.554 62.6518Z" fill="#2F2E41"/>
<path d="M214.318 183.853L214.643 176.551C218.031 174.741 221.811 173.785 225.653 173.766C220.365 178.086 221.026 186.412 217.44 192.221C216.308 194.024 214.785 195.55 212.982 196.684C211.18 197.819 209.145 198.534 207.029 198.776L202.603 201.483C201.996 198.101 202.13 194.628 202.996 191.303C203.862 187.977 205.439 184.879 207.618 182.221C208.856 180.742 210.275 179.425 211.842 178.3C212.902 181.092 214.318 183.853 214.318 183.853Z" fill="#F2F2F2"/>
<path d="M246 201.662C246 201.707 245.991 201.751 245.975 201.792C245.958 201.833 245.933 201.87 245.901 201.901C245.87 201.933 245.832 201.958 245.791 201.975C245.75 201.992 245.706 202 245.662 202H0.338166C0.248479 202 0.162469 201.964 0.0990503 201.901C0.0356319 201.838 0 201.752 0 201.662C0 201.573 0.0356319 201.487 0.0990503 201.423C0.162469 201.36 0.248479 201.324 0.338166 201.324H245.662C245.706 201.324 245.75 201.333 245.791 201.35C245.832 201.367 245.87 201.392 245.901 201.423C245.933 201.454 245.958 201.492 245.975 201.533C245.991 201.574 246 201.618 246 201.662Z" fill="#CCCCCC"/>
<path d="M168.367 22.7852H163.141V37H159.625V22.7852H154.469V19.9375H168.367V22.7852ZM176.512 27.4961C176.051 27.4336 175.645 27.4023 175.293 27.4023C174.012 27.4023 173.172 27.8359 172.773 28.7031V37H169.387V24.3203H172.586L172.68 25.832C173.359 24.668 174.301 24.0859 175.504 24.0859C175.879 24.0859 176.23 24.1367 176.559 24.2383L176.512 27.4961ZM181.727 37H178.328V24.3203H181.727V37ZM178.129 21.0391C178.129 20.5312 178.297 20.1133 178.633 19.7852C178.977 19.457 179.441 19.293 180.027 19.293C180.605 19.293 181.066 19.457 181.41 19.7852C181.754 20.1133 181.926 20.5312 181.926 21.0391C181.926 21.5547 181.75 21.9766 181.398 22.3047C181.055 22.6328 180.598 22.7969 180.027 22.7969C179.457 22.7969 178.996 22.6328 178.645 22.3047C178.301 21.9766 178.129 21.5547 178.129 21.0391ZM189.273 32.8633L191.629 24.3203H195.168L190.891 37H187.656L183.379 24.3203H186.918L189.273 32.8633ZM200.242 37H196.844V24.3203H200.242V37ZM196.645 21.0391C196.645 20.5312 196.812 20.1133 197.148 19.7852C197.492 19.457 197.957 19.293 198.543 19.293C199.121 19.293 199.582 19.457 199.926 19.7852C200.27 20.1133 200.441 20.5312 200.441 21.0391C200.441 21.5547 200.266 21.9766 199.914 22.3047C199.57 22.6328 199.113 22.7969 198.543 22.7969C197.973 22.7969 197.512 22.6328 197.16 22.3047C196.816 21.9766 196.645 21.5547 196.645 21.0391ZM210.391 37C210.234 36.6953 210.121 36.3164 210.051 35.8633C209.23 36.7773 208.164 37.2344 206.852 37.2344C205.609 37.2344 204.578 36.875 203.758 36.1562C202.945 35.4375 202.539 34.5312 202.539 33.4375C202.539 32.0938 203.035 31.0625 204.027 30.3438C205.027 29.625 206.469 29.2617 208.352 29.2539H209.91V28.5273C209.91 27.9414 209.758 27.4727 209.453 27.1211C209.156 26.7695 208.684 26.5938 208.035 26.5938C207.465 26.5938 207.016 26.7305 206.688 27.0039C206.367 27.2773 206.207 27.6523 206.207 28.1289H202.82C202.82 27.3945 203.047 26.7148 203.5 26.0898C203.953 25.4648 204.594 24.9766 205.422 24.625C206.25 24.2656 207.18 24.0859 208.211 24.0859C209.773 24.0859 211.012 24.4805 211.926 25.2695C212.848 26.0508 213.309 27.1523 213.309 28.5742V34.0703C213.316 35.2734 213.484 36.1836 213.812 36.8008V37H210.391ZM207.59 34.6445C208.09 34.6445 208.551 34.5352 208.973 34.3164C209.395 34.0898 209.707 33.7891 209.91 33.4141V31.2344H208.645C206.949 31.2344 206.047 31.8203 205.938 32.9922L205.926 33.1914C205.926 33.6133 206.074 33.9609 206.371 34.2344C206.668 34.5078 207.074 34.6445 207.59 34.6445ZM168.367 50.7852H163.141V65H159.625V50.7852H154.469V47.9375H168.367V50.7852ZM176.512 55.4961C176.051 55.4336 175.645 55.4023 175.293 55.4023C174.012 55.4023 173.172 55.8359 172.773 56.7031V65H169.387V52.3203H172.586L172.68 53.832C173.359 52.668 174.301 52.0859 175.504 52.0859C175.879 52.0859 176.23 52.1367 176.559 52.2383L176.512 55.4961ZM183.098 60.207L185.441 52.3203H189.074L183.977 66.9688L183.695 67.6367C182.938 69.293 181.688 70.1211 179.945 70.1211C179.453 70.1211 178.953 70.0469 178.445 69.8984V67.332L178.961 67.3438C179.602 67.3438 180.078 67.2461 180.391 67.0508C180.711 66.8555 180.961 66.5312 181.141 66.0781L181.539 65.0352L177.098 52.3203H180.742L183.098 60.207ZM201.836 58.7773C201.836 60.8086 201.402 62.3945 200.535 63.5352C199.668 64.668 198.457 65.2344 196.902 65.2344C195.527 65.2344 194.43 64.707 193.609 63.6523L193.457 65H190.41V47H193.797V53.457C194.578 52.543 195.605 52.0859 196.879 52.0859C198.426 52.0859 199.637 52.6562 200.512 53.7969C201.395 54.9297 201.836 56.5273 201.836 58.5898V58.7773ZM198.449 58.5312C198.449 57.25 198.246 56.3164 197.84 55.7305C197.434 55.1367 196.828 54.8398 196.023 54.8398C194.945 54.8398 194.203 55.2812 193.797 56.1641V61.168C194.211 62.0586 194.961 62.5039 196.047 62.5039C197.141 62.5039 197.859 61.9648 198.203 60.8867C198.367 60.3711 198.449 59.5859 198.449 58.5312ZM209.77 65.2344C207.91 65.2344 206.395 64.6641 205.223 63.5234C204.059 62.3828 203.477 60.8633 203.477 58.9648V58.6367C203.477 57.3633 203.723 56.2266 204.215 55.2266C204.707 54.2188 205.402 53.4453 206.301 52.9062C207.207 52.3594 208.238 52.0859 209.395 52.0859C211.129 52.0859 212.492 52.6328 213.484 53.7266C214.484 54.8203 214.984 56.3711 214.984 58.3789V59.7617H206.91C207.02 60.5898 207.348 61.2539 207.895 61.7539C208.449 62.2539 209.148 62.5039 209.992 62.5039C211.297 62.5039 212.316 62.0312 213.051 61.0859L214.715 62.9492C214.207 63.668 213.52 64.2305 212.652 64.6367C211.785 65.0352 210.824 65.2344 209.77 65.2344ZM209.383 54.8281C208.711 54.8281 208.164 55.0547 207.742 55.5078C207.328 55.9609 207.062 56.6094 206.945 57.4531H211.656V57.1836C211.641 56.4336 211.438 55.8555 211.047 55.4492C210.656 55.0352 210.102 54.8281 209.383 54.8281Z" fill="white"/>
<path d="M76.2068 65.21L83.9356 78.4404C84.3746 79.1848 85.0499 79.4962 85.769 79.4962C86.843 79.4962 87.9608 78.7127 87.9608 77.3819L88 50.9239C88 49.5931 86.9248 48.7708 85.8474 48.7708C85.1294 48.7708 84.4138 49.1236 83.9759 49.8655L76.2068 63.0569C76.0088 63.3707 75.9269 63.7625 75.9269 64.1127C75.9295 64.507 76.0088 64.8573 76.2068 65.21Z" fill="#2FC18C"/>
<path d="M68.2004 69.7109L75.9692 82.9023C76.1672 83.2551 76.2887 83.6469 76.2887 83.9971C76.2887 85.1333 75.2536 86.1114 74.097 86.1114C73.7379 86.1114 73.3787 86.0335 73.0223 85.8363L49.7158 72.5671C48.958 72.1365 48.6411 71.4309 48.6411 70.7668C48.6411 69.672 49.4782 68.5747 50.8328 68.5747L66.3308 68.6525C67.123 68.6551 67.8413 69.0469 68.2004 69.7109Z" fill="#2FC18C"/>
<path d="M66.2885 59.4563H50.7878C49.4332 59.4563 48.6356 58.4004 48.6356 57.342C48.6356 56.6363 48.9552 55.9333 49.7104 55.5027L73.0564 42.3113C73.4182 42.1167 73.817 42 74.1761 42C75.3327 42 76.3283 42.978 76.3283 44.1532C76.3283 44.506 76.2093 44.8588 76.0087 45.209L68.1607 58.4004C67.7619 59.0645 67.0833 59.4563 66.2885 59.4563Z" fill="#2FC18C"/>
</g>
<defs>
<clipPath id="clip0_11182_120">
<rect width="246" height="202" fill="white"/>
</clipPath>
</defs>
</svg>
