<svg width="771" height="527" viewBox="0 0 771 527" fill="none" xmlns="http://www.w3.org/2000/svg">
<g opacity="0.3">
<path d="M243.833 109.725C243.5 109.486 243.223 109.178 243.021 108.822C242.818 108.465 242.696 108.07 242.662 107.664C242.628 107.257 242.683 106.849 242.824 106.469C242.965 106.089 243.188 105.745 243.477 105.462L239.204 96.4729L244.295 97.2405L247.573 105.659C248.021 106.183 248.265 106.852 248.257 107.537C248.249 108.223 247.99 108.879 247.529 109.38C247.068 109.881 246.437 110.193 245.756 110.257C245.075 110.32 244.391 110.131 243.833 109.725Z" fill="#FFB6B6"/>
<path d="M72.8246 197.705C75.2276 192.054 75.4196 185.729 73.3623 179.99C73.158 179.422 74.0553 179.126 74.2593 179.693C76.389 185.67 76.1758 192.252 73.6623 198.126C73.4223 198.686 72.586 198.261 72.8246 197.705L72.8246 197.705Z" fill="white"/>
<path d="M168.606 83.3477C171.009 77.6973 171.201 71.372 169.144 65.6331C168.939 65.0647 169.837 64.7687 170.041 65.3365C172.17 71.3126 171.957 77.8948 169.444 83.7693C169.204 84.3291 168.367 83.9044 168.606 83.3477L168.606 83.3477Z" fill="white"/>
<path d="M137.304 297.794L141.395 297.484L152.249 290.661L139.464 255.436C139.464 255.436 127.959 229.774 149.526 217.753L206.164 164.998C206.164 164.998 222.214 147.31 232.592 152.981C234.557 154.055 280.682 175.352 280.682 175.352L289.823 164.477L261.968 136.011L185.506 100.933L139.901 137.075L98.1499 180.15L137.304 297.794Z" fill="#3F3D56"/>
<path d="M152.576 218.299C161.807 210.002 162.563 195.792 154.265 186.562C145.968 177.332 131.759 176.575 122.528 184.873C113.298 193.17 112.541 207.38 120.839 216.61C129.136 225.84 143.346 226.597 152.576 218.299Z" fill="#2F2E41"/>
<path d="M208.142 168.349C217.373 160.052 218.129 145.843 209.831 136.612C201.534 127.382 187.325 126.625 178.094 134.923C168.864 143.22 168.107 157.43 176.405 166.66C184.702 175.891 198.912 176.647 208.142 168.349Z" fill="#2F2E41"/>
<path d="M69.4625 164.696L75.1161 157.252C75.1161 157.252 120.091 103.884 160.191 83.1374L163.775 92.0671L77.3521 168.855L69.4625 164.696Z" fill="#E6E6E6"/>
<path d="M170.541 137.788L126.962 176.962C121.671 181.719 113.829 182.193 108.315 178.089L82.2623 158.699C81.6924 158.278 81.2176 157.741 80.8683 157.124C80.519 156.507 80.3029 155.822 80.2338 155.115C80.1603 154.374 80.2403 153.624 80.4686 152.913C80.697 152.202 81.0689 151.544 81.5613 150.98C101.999 127.487 124.754 107.024 149.193 90.1575C149.797 89.734 150.482 89.4386 151.203 89.2898C151.925 89.1409 152.668 89.1418 153.387 89.2924C154.075 89.4319 154.727 89.7116 155.3 90.1143C155.874 90.517 156.358 91.0339 156.722 91.633L173.538 119.195C177.168 125.144 175.907 132.964 170.541 137.788Z" fill="#6C63FF"/>
<path d="M53.2371 185.938L50.3778 182.375C49.9324 181.82 49.6291 181.164 49.494 180.464C49.3588 179.763 49.3958 179.039 49.6018 178.353C50.8512 174.197 54.9692 163.817 66.2017 157.221C66.9913 156.758 67.9021 156.549 68.8105 156.621C69.7189 156.693 70.5808 157.043 71.2789 157.623L73.1198 159.16L53.2371 185.938Z" fill="#3F3D56"/>
<path d="M186.943 65.7462L158.207 82.6756L156.067 79.4738C155.813 79.0967 155.679 78.6514 155.681 78.1951C155.683 77.7389 155.822 77.2926 156.079 76.9135C164.578 64.3498 177.304 61.654 181.003 61.1269C181.354 61.0774 181.712 61.1093 182.047 61.2199C182.383 61.3306 182.688 61.5171 182.939 61.7651L186.943 65.7462Z" fill="#3F3D56"/>
<path d="M140.653 298.873C140.073 299.406 139.353 299.76 138.578 299.895C128.659 301.934 118.341 298.605 107.924 290C99.3197 282.892 90.5686 272.128 81.9137 258.008C66.5692 232.973 55.5729 204.047 51.5574 192.773C51.0291 191.284 50.8576 189.691 51.0568 188.125C51.2561 186.559 51.8205 185.062 52.7046 183.755C58.1356 175.763 67.7218 161.929 70.9027 159.069C75.2618 155.151 81.3174 157.143 81.3782 157.164L81.4218 157.186L100.206 170.383L100.422 170.623C108.972 175.886 112.053 182.47 113.132 187.068C114.302 192.058 113.429 195.86 113.421 195.898C112.25 202.089 114.413 216.704 119.065 234.03C123.901 252.036 130.212 268.418 135.95 277.851C142.972 289.398 142.969 294.869 141.729 297.425C141.468 297.973 141.102 298.465 140.653 298.873V298.873Z" fill="#E6E6E6"/>
<path d="M167.61 137.284L126.319 174.401C123.879 176.589 120.75 177.856 117.467 177.986C114.185 178.116 110.951 177.102 108.32 175.116L82.7575 155.768C82.1913 155.34 81.7181 154.801 81.3671 154.184C81.0161 153.567 80.7948 152.886 80.7167 152.182C80.6387 151.478 80.7057 150.766 80.9134 150.091C81.1212 149.415 81.4654 148.791 81.9248 148.255C101.186 125.878 122.748 106.488 146.009 90.622C146.585 90.2312 147.235 89.9616 147.92 89.8295C148.604 89.6975 149.31 89.7058 149.993 89.8538C150.676 90.0018 151.323 90.2866 151.895 90.6909C152.467 91.0952 152.951 91.6107 153.32 92.2063L170.128 119.294C171.887 122.125 172.598 125.478 172.138 128.767C171.678 132.056 170.075 135.071 167.61 137.284V137.284Z" fill="#E6E6E6"/>
<path d="M289.962 164.655C289.508 165.06 288.98 165.371 288.406 165.572C285.733 166.534 280.293 165.957 269.557 157.748C260.785 151.042 245.166 143.027 227.775 136.307C211.041 129.842 196.739 126.14 190.45 126.648C190.419 126.652 186.546 127.116 181.708 125.422C177.251 123.862 171.031 120.099 166.705 111.039L166.467 110.767L155.35 90.6979L155.344 90.6739C155.33 90.6113 153.992 84.3784 158.351 80.4599C161.532 77.6005 176.305 69.537 184.829 64.985C186.222 64.2447 187.77 63.8425 189.349 63.8106C190.928 63.7788 192.493 64.1182 193.918 64.8016V64.8016C204.702 69.9912 232.297 83.9958 255.561 101.911C268.683 112.016 278.457 121.86 284.611 131.17C292.063 142.441 294.277 153.055 291.193 162.715C290.976 163.466 290.549 164.14 289.962 164.655V164.655Z" fill="#E6E6E6"/>
<path d="M143.774 208.944C149.288 203.987 149.74 195.498 144.783 189.984C139.826 184.47 131.337 184.018 125.823 188.975C120.309 193.932 119.857 202.421 124.814 207.935C129.771 213.449 138.259 213.901 143.774 208.944Z" fill="#3F3D56"/>
<path d="M140.869 205.276C144.585 201.935 144.977 196.312 141.744 192.716C138.511 189.119 132.878 188.912 129.162 192.253C125.446 195.593 125.054 201.217 128.287 204.813C131.52 208.409 137.153 208.617 140.869 205.276Z" fill="#2F2E41"/>
<path d="M199.774 158.604C205.288 153.647 205.74 145.158 200.783 139.644C195.826 134.13 187.338 133.678 181.823 138.635C176.309 143.592 175.857 152.08 180.814 157.595C185.771 163.109 194.26 163.561 199.774 158.604Z" fill="#3F3D56"/>
<path d="M196.435 155.326C200.151 151.985 200.543 146.362 197.31 142.766C194.078 139.169 188.444 138.962 184.728 142.303C181.012 145.643 180.62 151.267 183.853 154.863C187.086 158.459 192.719 158.667 196.435 155.326Z" fill="#2F2E41"/>
<path d="M145.795 167.098C146.154 166.774 146.184 166.221 145.86 165.861C145.537 165.501 144.983 165.472 144.624 165.795C144.264 166.119 144.235 166.672 144.558 167.032C144.881 167.391 145.435 167.421 145.795 167.098Z" fill="#2F2E41"/>
<path d="M149.05 164.171C149.53 163.74 149.656 163.099 149.333 162.739C149.01 162.38 148.359 162.437 147.88 162.868C147.4 163.299 147.273 163.94 147.597 164.3C147.92 164.66 148.571 164.602 149.05 164.171Z" fill="#2F2E41"/>
<path d="M150.263 168.575C150.622 168.252 150.564 167.601 150.133 167.122C149.702 166.642 149.061 166.516 148.702 166.839C148.342 167.162 148.4 167.813 148.831 168.293C149.262 168.772 149.903 168.899 150.263 168.575Z" fill="#2F2E41"/>
<path d="M153.301 165.844C153.661 165.52 153.603 164.87 153.172 164.39C152.741 163.911 152.1 163.784 151.741 164.107C151.381 164.431 151.439 165.081 151.87 165.561C152.301 166.04 152.942 166.167 153.301 165.844Z" fill="#2F2E41"/>
<path d="M156.34 163.112C156.7 162.789 156.642 162.138 156.211 161.659C155.78 161.179 155.139 161.052 154.779 161.376C154.42 161.699 154.477 162.35 154.909 162.829C155.34 163.309 155.981 163.435 156.34 163.112Z" fill="#2F2E41"/>
<path d="M159.379 160.38C159.739 160.057 159.681 159.406 159.25 158.927C158.819 158.447 158.178 158.321 157.818 158.644C157.458 158.967 157.516 159.618 157.947 160.098C158.378 160.577 159.019 160.704 159.379 160.38Z" fill="#2F2E41"/>
<path d="M152.306 161.244C152.666 160.921 152.695 160.367 152.372 160.008C152.049 159.648 151.495 159.618 151.135 159.942C150.776 160.265 150.746 160.819 151.07 161.178C151.393 161.538 151.946 161.567 152.306 161.244Z" fill="#2F2E41"/>
<path d="M155.562 158.317C156.041 157.886 156.168 157.245 155.845 156.886C155.522 156.526 154.871 156.584 154.391 157.015C153.912 157.446 153.785 158.087 154.108 158.447C154.432 158.806 155.082 158.748 155.562 158.317Z" fill="#2F2E41"/>
<path d="M159.035 155.195C159.515 154.764 159.641 154.123 159.318 153.764C158.995 153.404 158.344 153.462 157.864 153.893C157.385 154.324 157.258 154.965 157.581 155.325C157.905 155.684 158.556 155.626 159.035 155.195Z" fill="#2F2E41"/>
<path d="M175.996 181.548L169.547 187.346C169.251 187.612 168.864 187.753 168.472 187.738C168.079 187.722 167.714 187.552 167.455 187.264C167.196 186.976 167.066 186.594 167.092 186.203C167.118 185.811 167.299 185.442 167.596 185.175L174.045 179.378C174.341 179.111 174.728 178.971 175.12 178.986C175.513 179.001 175.878 179.172 176.137 179.459C176.396 179.747 176.526 180.129 176.5 180.521C176.474 180.912 176.292 181.282 175.996 181.548Z" fill="#2F2E41"/>
<path d="M87.3715 170.952C86.9464 171.332 86.4024 171.554 85.8274 171.582C85.2523 171.61 84.6797 171.443 84.202 171.108L79.252 167.628C78.6899 167.232 78.3021 166.632 78.1738 165.96C78.0455 165.289 78.1872 164.6 78.5678 164.046C78.9483 163.491 79.5367 163.116 80.2035 163.004C80.8703 162.891 81.561 163.05 82.1239 163.444L87.0739 166.924C87.3939 167.15 87.6607 167.444 87.8543 167.784C88.0479 168.125 88.1634 168.503 88.192 168.89C88.2206 169.277 88.1617 169.664 88.0196 170.021C87.8775 170.378 87.656 170.696 87.3715 170.952V170.952Z" fill="#3F3D56"/>
<path d="M168.462 97.2727C168.177 97.5284 167.841 97.7184 167.477 97.8284C167.112 97.9385 166.731 97.9657 166.359 97.9082C165.988 97.8506 165.637 97.7097 165.333 97.4961C165.028 97.2824 164.778 97.0014 164.601 96.6742L161.874 91.6137C161.564 91.0382 161.501 90.3573 161.696 89.7204C161.892 89.0835 162.331 88.5427 162.917 88.217C163.503 87.8912 164.188 87.8071 164.822 87.983C165.456 88.159 165.986 88.5807 166.296 89.1555L169.024 94.216C169.287 94.7044 169.374 95.2716 169.272 95.8262C169.17 96.3808 168.885 96.8904 168.462 97.2727V97.2727Z" fill="#3F3D56"/>
<path d="M84.5992 196.206C83.9602 196.781 83.1633 197.149 82.3169 197.26L78.7934 197.725C78.1303 197.812 77.4592 197.739 76.8368 197.512C76.2145 197.285 75.6593 196.91 75.2182 196.42L71.1038 191.843C70.2787 190.923 69.8599 189.706 69.9393 188.46C70.0187 187.213 70.5898 186.039 71.5274 185.194L74.8664 182.193C75.8058 181.35 77.0342 180.907 78.282 180.96C79.5298 181.014 80.6952 181.559 81.5225 182.478L85.6773 187.1C86.1058 187.578 86.4141 188.152 86.5774 188.777C86.7406 189.401 86.7544 190.058 86.6175 190.694L85.9119 193.95C85.7244 194.818 85.2644 195.608 84.5992 196.206V196.206Z" fill="#3F3D56"/>
<path d="M101.402 211.712L98.0631 214.714C97.1237 215.557 95.8953 216 94.6475 215.946C93.3997 215.893 92.2343 215.347 91.407 214.429L87.2926 209.852C86.8519 209.362 86.5384 208.77 86.3787 208.127C86.2189 207.484 86.2175 206.809 86.3747 206.159L87.2113 202.705C87.4159 201.858 87.8805 201.092 88.5395 200.513C89.1985 199.935 90.0187 199.574 90.8842 199.481L94.1962 199.125C94.8438 199.057 95.4953 199.14 96.0987 199.369C96.702 199.597 97.2404 199.965 97.6708 200.442L101.826 205.064C102.651 205.984 103.07 207.2 102.99 208.447C102.911 209.693 102.34 210.868 101.402 211.712V211.712Z" fill="#3F3D56"/>
<path d="M102.875 193.121L98.2977 197.235C97.8071 197.676 97.2153 197.99 96.5724 198.149C95.9295 198.309 95.2544 198.31 94.6043 198.153L91.1501 197.317C90.3036 197.112 89.537 196.648 88.9587 195.989C88.3803 195.329 88.0194 194.509 87.9268 193.644L87.5707 190.332C87.5022 189.684 87.5856 189.033 87.8142 188.429C88.0428 187.826 88.4102 187.288 88.8872 186.857L93.5092 182.702C94.4292 181.877 95.6459 181.458 96.8923 181.538C98.1388 181.617 99.3132 182.188 100.158 183.126L103.159 186.465C104.002 187.404 104.445 188.633 104.392 189.881C104.338 191.128 103.793 192.294 102.875 193.121V193.121Z" fill="#3F3D56"/>
<path d="M83.5633 210.481L78.9863 214.595C78.0662 215.42 76.8495 215.839 75.6031 215.76C74.3567 215.68 73.1823 215.109 72.3376 214.171L69.3361 210.832C68.4935 209.893 68.0503 208.665 68.1036 207.417C68.157 206.169 68.7026 205.004 69.6207 204.176L74.2427 200.022C74.7213 199.593 75.2956 199.285 75.9199 199.121C76.5441 198.958 77.2008 198.944 77.8375 199.081L81.0929 199.787C81.9437 199.971 82.721 200.417 83.3149 201.062C83.9088 201.707 84.2894 202.518 84.4029 203.382L84.8681 206.905C84.9554 207.569 84.8824 208.24 84.6552 208.862C84.4281 209.484 84.0536 210.04 83.5633 210.481V210.481Z" fill="#3F3D56"/>
<path d="M189.834 92.9738C193.07 90.0643 193.336 85.0818 190.426 81.8452C187.517 78.6085 182.534 78.3433 179.297 81.2528C176.061 84.1624 175.796 89.1448 178.705 92.3815C181.615 95.6181 186.597 95.8833 189.834 92.9738Z" fill="#3F3D56"/>
<path d="M214.954 94.7243C218.191 91.8148 218.456 86.8323 215.547 83.5957C212.637 80.359 207.655 80.0938 204.418 83.0033C201.181 85.9129 200.916 90.8953 203.826 94.132C206.735 97.3686 211.718 97.6338 214.954 94.7243Z" fill="#3F3D56"/>
<path d="M213.248 119.02C216.484 116.111 216.75 111.128 213.84 107.892C210.931 104.655 205.948 104.39 202.711 107.299C199.475 110.209 199.21 115.191 202.119 118.428C205.029 121.665 210.011 121.93 213.248 119.02Z" fill="#3F3D56"/>
<path d="M188.518 117.704C191.754 114.795 192.019 109.812 189.11 106.575C186.2 103.339 181.218 103.074 177.981 105.983C174.745 108.893 174.479 113.875 177.389 117.112C180.298 120.348 185.281 120.614 188.518 117.704Z" fill="#3F3D56"/>
<path d="M213.003 92.5537C212.273 93.2098 211.365 93.6347 210.394 93.7747C209.423 93.9147 208.432 93.7636 207.547 93.3404C206.661 92.9172 205.921 92.2409 205.42 91.3972C204.919 90.5534 204.679 89.58 204.732 88.6001C204.784 87.6201 205.125 86.6777 205.713 85.8919C206.301 85.1061 207.109 84.5122 208.034 84.1854C208.959 83.8586 209.961 83.8135 210.911 84.0558C211.862 84.2981 212.72 84.817 213.376 85.5468C214.254 86.5261 214.708 87.8138 214.639 89.1274C214.569 90.441 213.981 91.6732 213.003 92.5537V92.5537ZM206.812 85.6658C206.179 86.2344 205.729 86.9778 205.519 87.8019C205.309 88.6261 205.348 89.494 205.632 90.2959C205.915 91.0978 206.43 91.7977 207.111 92.3072C207.792 92.8166 208.608 93.1126 209.458 93.1578C210.307 93.203 211.151 92.9954 211.882 92.5611C212.613 92.1269 213.199 91.4855 213.566 90.7182C213.933 89.9509 214.064 89.092 213.942 88.2502C213.821 87.4085 213.453 86.6216 212.884 85.9891C212.121 85.1421 211.053 84.6323 209.915 84.5717C208.776 84.5111 207.66 84.9046 206.812 85.6658V85.6658Z" fill="#E6E6E6"/>
<path d="M191.226 86.2278L183.311 93.1395L181.171 82.708L191.226 86.2278ZM183.753 91.8109L189.85 86.4877L182.106 83.7769L183.753 91.8109Z" fill="#E6E6E6"/>
<path d="M189.432 112.173L182.92 118.026L177.457 111.949L183.969 106.095L189.432 112.173ZM183.008 117.032L188.434 112.154L183.881 107.089L178.455 111.967L183.008 117.032Z" fill="#E6E6E6"/>
<path d="M213.833 113.123L208.395 112.875L208.688 108.084L207.987 108.051L207.695 112.843L202.899 112.625L202.857 113.325L207.652 113.543L207.321 118.976L208.021 119.009L208.353 113.575L213.791 113.822L213.833 113.123Z" fill="#E6E6E6"/>
</g>
<path d="M770.115 286.974L750.136 285.766L738.576 284.943V284.923H738.432H738.271V284.946L676.108 289.906H670.954L670.348 311.306L680.355 314.824L686.419 345.604L658.826 400.123L642.152 412.727V424.744L652.159 434.419L652.765 478.683L655.798 479.267V478.797L657.322 479.089V479.264L716.543 499.126L719.032 500.81L724.239 497.574L766.187 473.402L770.115 286.974ZM706.448 424.482L722.671 410.769L706.448 424.482ZM650.182 430.171L654.569 434.422V434.684L650.182 430.171Z" fill="url(#paint0_linear_11230_752)"/>
<path d="M658.159 435.317L717.248 450.197L708.472 440.277L703.499 434.15L651.723 423.939L649.383 425.981L658.159 435.317Z" fill="#535461"/>
<path d="M649.383 425.981L707.595 439.402L707.887 425.398L691.214 418.979L657.866 413.436H648.213L649.383 425.981Z" fill="#D6D6E3"/>
<path d="M691.506 346.625L750.888 350.418V339.331L746.793 314.532L744.745 312.782L685.363 314.532L691.506 346.625Z" fill="#D6D6E3"/>
<path d="M677.465 290.901H674.54L673.955 312.198L683.608 315.699L689.458 346.333L662.839 400.599L646.75 413.144V425.106L656.403 434.734L656.988 478.788L659.914 479.372L659.329 435.609L649.675 425.398L649.383 413.144L664.887 400.891L692.091 346.625L686.241 315.699L676.587 311.615L677.465 290.901Z" fill="#D6D6E3"/>
<path d="M675.125 290.901H672.2L671.615 312.198L681.268 315.699L687.118 346.333L660.499 400.599L644.41 413.144V425.106L654.063 434.734L654.648 478.788L657.573 479.372L656.988 435.609L647.335 425.398L647.043 413.144L663.131 400.891L689.751 346.625L683.9 315.699L674.247 311.615L675.125 290.901Z" fill="#535461"/>
<path d="M674.979 310.01L676.441 312.053L684.632 315.845L749.571 314.095L743.282 312.198L736.554 309.281L737.432 306.947L674.979 310.01Z" fill="#A8A8A8"/>
<path d="M664.009 401.766L723.391 411.394L735.384 386.011L751.765 349.543L691.506 346.625L664.009 401.766Z" fill="#6C63FF"/>
<g opacity="0.1">
<path opacity="0.1" d="M694.724 357.128L734.799 360.337L714.03 401.182L675.125 395.347L694.724 357.128Z" fill="white"/>
</g>
<g opacity="0.1">
<path opacity="0.1" d="M697.488 360.095L699.258 360.238L698.342 362.038L696.625 361.782L697.488 360.095Z" fill="white"/>
</g>
<g opacity="0.1">
<path opacity="0.1" d="M697.781 377.017L699.55 377.16L698.635 378.96L696.918 378.703L697.781 377.017Z" fill="white"/>
</g>
<g opacity="0.1">
<path opacity="0.1" d="M707.434 362.137L709.203 362.28L708.288 364.081L706.571 363.824L707.434 362.137Z" fill="white"/>
</g>
<g opacity="0.1">
<path opacity="0.1" d="M725.863 363.013L727.632 363.156L726.717 364.956L725 364.699L725.863 363.013Z" fill="white"/>
</g>
<g opacity="0.1">
<path opacity="0.1" d="M700.998 365.347L702.768 365.49L701.853 367.29L700.135 367.033L700.998 365.347Z" fill="white"/>
</g>
<g opacity="0.1">
<path opacity="0.1" d="M707.434 383.144L709.203 383.287L708.288 385.087L706.571 384.83L707.434 383.144Z" fill="white"/>
</g>
<g opacity="0.1">
<path opacity="0.1" d="M691.638 372.932L693.407 373.075L692.492 374.875L690.775 374.619L691.638 372.932Z" fill="white"/>
</g>
<g opacity="0.1">
<path opacity="0.1" d="M718.55 362.137L720.319 362.28L719.404 364.081L717.687 363.824L718.55 362.137Z" fill="white"/>
</g>
<g opacity="0.1">
<path opacity="0.1" d="M704.509 372.057L706.278 372.2L705.363 374L703.646 373.743L704.509 372.057Z" fill="white"/>
</g>
<g opacity="0.1">
<path opacity="0.1" d="M702.461 360.97L704.231 361.113L703.315 362.914L701.598 362.657L702.461 360.97Z" fill="white"/>
</g>
<g opacity="0.1">
<path opacity="0.1" d="M711.529 371.182L713.299 371.325L712.383 373.125L710.666 372.868L711.529 371.182Z" fill="white"/>
</g>
<g opacity="0.1">
<path opacity="0.1" d="M713.577 362.137L715.346 362.28L714.431 364.081L712.714 363.824L713.577 362.137Z" fill="white"/>
</g>
<g opacity="0.1">
<path opacity="0.1" d="M695.148 366.222L696.918 366.365L696.002 368.165L694.285 367.908L695.148 366.222Z" fill="white"/>
</g>
<path d="M648.213 413.436L706.132 425.106L722.086 411.184L664.155 401.328L648.213 413.436Z" fill="#D6D6E3"/>
<path d="M659.036 433.859V479.372L716.37 499.211L717.248 451.947L714.908 447.55L704.377 444.945L659.036 433.859Z" fill="#535461"/>
<path d="M666.495 407.018C667.869 407.018 668.982 406.364 668.982 405.559C668.982 404.753 667.869 404.1 666.495 404.1C665.122 404.1 664.009 404.753 664.009 405.559C664.009 406.364 665.122 407.018 666.495 407.018Z" fill="#575988"/>
<path d="M668.543 410.227C669.916 410.227 671.03 409.574 671.03 408.768C671.03 407.962 669.916 407.309 668.543 407.309C667.17 407.309 666.057 407.962 666.057 408.768C666.057 409.574 667.17 410.227 668.543 410.227Z" fill="#FA595F"/>
<path d="M661.523 409.351C662.896 409.351 664.009 408.698 664.009 407.893C664.009 407.087 662.896 406.434 661.523 406.434C660.149 406.434 659.036 407.087 659.036 407.893C659.036 408.698 660.149 409.351 661.523 409.351Z" fill="#FFD037"/>
<path d="M693.115 412.269C694.488 412.269 695.601 411.616 695.601 410.81C695.601 410.005 694.488 409.351 693.115 409.351C691.742 409.351 690.628 410.005 690.628 410.81C690.628 411.616 691.742 412.269 693.115 412.269Z" fill="#575988"/>
<path d="M688.142 414.895C689.515 414.895 690.628 414.242 690.628 413.436C690.628 412.63 689.515 411.977 688.142 411.977C686.769 411.977 685.656 412.63 685.656 413.436C685.656 414.242 686.769 414.895 688.142 414.895Z" fill="#FFD037"/>
<path d="M678.781 410.81C680.801 410.81 682.438 410.026 682.438 409.06C682.438 408.093 680.801 407.309 678.781 407.309C676.762 407.309 675.125 408.093 675.125 409.06C675.125 410.026 676.762 410.81 678.781 410.81Z" fill="#A8A8A8"/>
<path d="M695.748 415.478C697.121 415.478 698.234 414.825 698.234 414.02C698.234 413.214 697.121 412.561 695.748 412.561C694.374 412.561 693.261 413.214 693.261 414.02C693.261 414.825 694.374 415.478 695.748 415.478Z" fill="#FA595F"/>
<path d="M679.805 408.771H678.05L676.541 402.959C676.477 402.715 676.471 402.459 676.522 402.212C676.573 401.964 676.68 401.732 676.835 401.532C676.99 401.332 677.189 401.171 677.416 401.06C677.644 400.948 677.893 400.891 678.147 400.891V400.891C678.586 400.891 679.008 401.065 679.319 401.375C679.63 401.685 679.805 402.106 679.805 402.545V408.771Z" fill="#A8A8A8"/>
<path d="M705.108 415.478C707.128 415.478 708.765 414.695 708.765 413.728C708.765 412.761 707.128 411.977 705.108 411.977C703.089 411.977 701.452 412.761 701.452 413.728C701.452 414.695 703.089 415.478 705.108 415.478Z" fill="#A8A8A8"/>
<path d="M706.132 413.439H704.377L702.868 407.627C702.804 407.383 702.798 407.127 702.849 406.88C702.9 406.632 703.007 406.4 703.162 406.2C703.317 406 703.516 405.839 703.743 405.728C703.97 405.616 704.22 405.559 704.473 405.559V405.559C704.913 405.559 705.335 405.733 705.646 406.043C705.957 406.353 706.132 406.774 706.132 407.213V413.439Z" fill="#A8A8A8"/>
<path d="M677.172 290.901L737.432 285.941L735.969 307.822L675.71 310.74L677.172 290.901Z" fill="#535461"/>
<path d="M737.139 285.941L764.929 287.983L761.126 473.537L718.564 500.815L715.639 498.773L715.493 450.197L706.132 439.694V425.106L722.513 410.81L750.303 349.251L746.354 314.095H748.401L735.384 309.573L737.139 285.941Z" fill="#D6D6E3"/>
<path d="M739.772 286.233L767.854 287.983L764.051 473.537L718.418 500.67V450.197L709.057 439.694V425.106L725.438 410.81L753.228 349.251L748.255 313.949L738.309 309.573L739.772 286.233Z" fill="#535461"/>
<path d="M690.368 398.644C686.273 407.105 676.193 404.911 676.193 404.911C675.672 404.43 672.413 403.624 669.941 403.067C668.356 402.708 667.095 402.457 667.095 402.457L670.556 397.646L673.15 398.177L677.02 398.971C677.02 398.971 694.478 390.186 690.368 398.644Z" fill="url(#paint1_linear_11230_752)"/>
<g opacity="0.08">
<path opacity="0.08" d="M690.368 398.644C686.273 407.105 676.193 404.911 676.193 404.911C675.672 404.43 672.413 403.624 669.941 403.067C668.356 402.708 667.095 402.457 667.095 402.457L670.556 397.646L673.15 398.177L677.02 398.971C677.02 398.971 694.478 390.186 690.368 398.644Z" fill="url(#paint2_linear_11230_752)"/>
</g>
<g opacity="0.1">
<path opacity="0.1" d="M673.153 398.177L669.935 403.07C668.35 402.711 667.089 402.46 667.089 402.46L670.55 397.649L673.153 398.177Z" fill="url(#paint3_linear_11230_752)"/>
</g>
<path d="M637.179 380.69C637.179 380.69 652.264 404.202 668.417 404.147L672.805 397.436C672.805 397.436 658.021 386.904 656.055 381.413C655.33 379.371 653.832 376.573 652.235 373.828C647.329 365.417 634.099 370.91 637.006 380.153C637.063 380.336 637.12 380.515 637.179 380.69Z" fill="url(#paint4_linear_11230_752)"/>
<g opacity="0.05">
<path opacity="0.05" d="M637.179 380.69C637.179 380.69 652.264 404.202 668.417 404.147L672.805 397.436C672.805 397.436 658.021 386.904 656.055 381.413C655.33 379.371 653.832 376.573 652.235 373.828C647.329 365.417 634.099 370.91 637.006 380.153C637.063 380.336 637.12 380.515 637.179 380.69Z" fill="url(#paint5_linear_11230_752)"/>
</g>
<path d="M627.359 517.355L628.067 525.524C628.067 525.524 651.238 521.684 651.036 514.008C650.834 506.332 627.359 517.355 627.359 517.355Z" fill="url(#paint6_linear_11230_752)"/>
<g opacity="0.1">
<path opacity="0.1" d="M627.359 517.355L628.067 525.524C628.067 525.524 651.238 521.684 651.036 514.008C650.834 506.332 627.359 517.355 627.359 517.355Z" fill="url(#paint7_linear_11230_752)"/>
</g>
<path d="M654.476 519.913L654.072 527C654.072 527 686.249 524.637 685.032 517.956C683.816 511.275 666.82 514.992 666.82 514.992L654.476 519.913Z" fill="url(#paint8_linear_11230_752)"/>
<path d="M654.879 450.623C654.879 450.623 652.978 455.874 650.55 461.89C648.227 467.649 645.425 474.123 643.345 477.394C639.095 484.086 638.489 504.757 638.489 504.757C637.679 508.103 641.728 514.601 641.728 514.601C633.634 523.061 626.145 518.145 626.145 518.145C627.561 515.587 625.133 508.302 625.133 508.302C625.133 508.302 628.371 474.64 630.398 473.064C632.425 471.489 634.04 463.614 634.04 463.614L632.23 436.855L631.814 430.728L649.216 423.052L650.471 429.156L651.714 435.198L654.879 450.623Z" fill="url(#paint9_linear_11230_752)"/>
<g opacity="0.1">
<path opacity="0.1" d="M654.879 450.623C654.879 450.623 652.978 455.874 650.55 461.89C648.227 467.649 645.425 474.123 643.345 477.394C639.095 484.086 638.489 504.757 638.489 504.757C637.679 508.103 641.728 514.601 641.728 514.601C633.634 523.061 626.145 518.145 626.145 518.145C627.561 515.587 625.133 508.302 625.133 508.302C625.133 508.302 628.371 474.64 630.398 473.064C632.425 471.489 634.04 463.614 634.04 463.614L632.23 436.855L631.814 430.728L649.216 423.052L650.471 429.156L651.714 435.198L654.879 450.623Z" fill="url(#paint10_linear_11230_752)"/>
</g>
<path d="M670.055 515.782C666.414 522.081 653.674 521.293 653.674 521.293V502.788C653.674 502.788 650.032 482.117 652.057 477.405C654.081 472.693 651.246 464.02 651.246 464.02L650.55 461.893L642.298 436.511L639.905 429.153H667.224C667.224 429.153 667.224 430.413 667.224 432.461C667.259 440.338 667.423 459.859 668.227 464.39C669.239 470.1 666.405 473.84 666.405 473.84C666.405 473.84 668.022 497.069 666.607 504.351C665.191 511.633 670.055 515.782 670.055 515.782Z" fill="url(#paint11_linear_11230_752)"/>
<path d="M647.596 342.745C647.596 342.745 643.345 354.161 634.847 358.295C626.35 362.429 648.81 363.611 648.81 363.611C648.81 363.611 652.451 354.949 660.747 348.845L647.596 342.745Z" fill="url(#paint12_linear_11230_752)"/>
<g opacity="0.1">
<path opacity="0.1" d="M667.233 432.473C663.845 433.123 657.851 434.238 651.711 435.206C648.494 435.714 645.241 436.181 642.298 436.519C637.77 437.041 633.982 437.26 632.227 436.852L631.811 430.725L649.213 423.049L650.468 429.153H667.224C667.224 429.153 667.224 430.425 667.233 432.473Z" fill="url(#paint13_linear_11230_752)"/>
</g>
<path d="M670.055 431.329C670.055 431.329 635.857 438.22 631.609 436.055C627.362 433.891 626.344 428.38 627.561 422.276C628.778 416.173 627.561 401.016 625.335 381.723C624.214 372.007 626.683 365.487 629.415 361.408C630.615 359.65 632.229 358.213 634.117 357.225C636.004 356.236 638.107 355.726 640.239 355.739C643.938 355.724 647.533 356.958 650.439 359.24C651.293 359.92 652.156 360.477 652.861 360.667C653.417 360.816 654.253 361.405 655.201 362.208C659.421 365.833 662.071 370.947 662.593 376.477C662.944 380.144 663.316 384.763 663.497 389.431C663.683 393.417 663.642 397.411 663.374 401.393C663.186 404.308 663.326 407.235 663.79 410.119C665.366 420.756 670.055 431.329 670.055 431.329Z" fill="url(#paint14_linear_11230_752)"/>
<g opacity="0.1">
<path opacity="0.1" d="M663.793 410.133C651.381 402.6 644.963 381.524 644.963 381.524C644.963 381.34 644.963 381.16 644.942 380.982C644.665 371.316 658.934 369.454 661.356 378.834C662.143 381.889 662.818 384.987 662.959 387.129C663.035 387.917 663.217 388.691 663.5 389.431C663.686 393.417 663.645 397.411 663.377 401.392C663.188 404.312 663.327 407.244 663.793 410.133V410.133Z" fill="url(#paint15_linear_11230_752)"/>
</g>
<g opacity="0.1">
<path opacity="0.1" d="M645.469 349.537C647.487 352.866 649.085 356.218 653.183 356.787C655.195 354.24 657.534 351.969 660.139 350.03L646.975 343.926C646.975 343.926 647.748 346.009 645.469 349.537Z" fill="url(#paint16_linear_11230_752)"/>
</g>
<path d="M655.69 355.733C663.066 355.733 669.046 349.917 669.046 342.742C669.046 335.567 663.066 329.75 655.69 329.75C648.313 329.75 642.333 335.567 642.333 342.742C642.333 349.917 648.313 355.733 655.69 355.733Z" fill="url(#paint17_linear_11230_752)"/>
<g opacity="0.1">
<path opacity="0.1" d="M668.891 346.818C669.444 346.841 669.991 346.697 670.459 346.403C671.1 345.939 671.304 345.108 671.451 344.344C671.799 342.538 672.071 340.635 671.451 338.897C671.05 337.747 670.281 336.752 669.742 335.661C668.543 333.277 668.33 330.41 666.618 328.341C665.551 327.046 661.798 328.341 660.23 327.687C656.86 326.275 655.397 323.41 651.726 323.413C650.381 323.381 649.038 323.548 647.742 323.909C646.101 324.414 644.65 325.368 643.301 326.415C640.961 328.23 638.668 330.722 638.876 333.633C639.01 335.492 640.148 337.134 640.818 338.867C641.941 341.785 641.736 345.064 640.926 348.087C640.581 349.373 640.186 350.911 641.102 351.894C641.687 352.51 642.614 352.685 643.442 352.55C644.267 352.368 645.058 352.053 645.782 351.617C647.098 350.92 648.432 350.211 649.497 349.187C650.202 348.51 650.769 347.71 651.439 347.001C652.751 345.646 654.236 344.469 655.856 343.5C657.152 342.724 658.489 343.209 659.849 343.713C662.839 344.807 665.603 346.876 668.891 346.818Z" fill="url(#paint18_linear_11230_752)"/>
</g>
<path d="M668.689 346.619C669.242 346.643 669.789 346.498 670.257 346.205C670.898 345.741 671.103 344.91 671.249 344.145C671.597 342.339 671.869 340.437 671.249 338.698C670.848 337.549 670.079 336.554 669.541 335.463C668.341 333.079 668.128 330.211 666.416 328.143C665.349 326.847 661.798 328.341 660.23 327.685C656.86 326.273 655.195 323.212 651.524 323.215C650.179 323.182 648.836 323.349 647.54 323.711C645.899 324.216 644.448 325.17 643.1 326.217C640.759 328.032 638.466 330.523 638.674 333.435C638.808 335.293 639.946 336.936 640.616 338.669C641.739 341.587 641.535 344.866 640.724 347.888C640.379 349.175 639.984 350.712 640.9 351.696C641.485 352.311 642.412 352.486 643.24 352.352C644.066 352.17 644.856 351.854 645.58 351.419C646.897 350.721 648.23 350.012 649.295 348.988C650 348.311 650.568 347.512 651.238 346.803C652.549 345.447 654.034 344.27 655.655 343.302C656.95 342.526 658.287 343.01 659.648 343.515C662.637 344.609 665.401 346.678 668.689 346.619Z" fill="url(#paint19_linear_11230_752)"/>
<g opacity="0.05">
<path opacity="0.05" d="M663.792 410.133C663.328 407.249 663.189 404.322 663.377 401.407C663.645 397.425 663.686 393.432 663.5 389.445C663.319 384.777 662.95 380.159 662.596 376.492C662.071 370.955 659.415 365.837 655.186 362.213C654.248 361.411 653.411 360.819 652.846 360.673C652.141 360.486 651.278 359.926 650.424 359.246C647.552 356.962 651.202 361.411 652.141 362.213C656.37 365.837 659.026 370.955 659.551 376.492C659.902 380.159 660.273 384.777 660.455 389.445C660.641 393.432 660.6 397.425 660.332 401.407C660.144 404.322 660.283 407.249 660.747 410.133C662.321 420.762 667.01 431.329 667.01 431.329C667.01 431.329 644.117 435.942 633.464 436.432C641.812 437.015 670.044 431.329 670.044 431.329C670.044 431.329 665.366 420.756 663.792 410.133Z" fill="url(#paint20_linear_11230_752)"/>
</g>
<path d="M691.708 412.038C685.433 419.125 676.33 414.402 676.33 414.402C675.959 413.801 673.039 412.181 670.813 411.003C669.383 410.247 668.236 409.675 668.236 409.675L672.89 405.935L675.245 407.12L678.755 408.888C678.755 408.888 697.988 404.952 691.708 412.038Z" fill="url(#paint21_linear_11230_752)"/>
<g opacity="0.1">
<path opacity="0.1" d="M675.245 407.12L670.813 411.003C669.383 410.247 668.236 409.675 668.236 409.675L672.89 405.935L675.245 407.12Z" fill="url(#paint22_linear_11230_752)"/>
</g>
<path d="M645.37 380.935C645.37 380.935 653.464 407.51 669.046 411.645L675.116 406.329C675.116 406.329 663.763 392.342 663.365 386.539C663.222 384.395 662.549 381.288 661.762 378.245C659.34 368.868 645.071 370.727 645.349 380.392C645.355 380.571 645.362 380.752 645.37 380.935Z" fill="url(#paint23_linear_11230_752)"/>
<path opacity="0.05" d="M629.688 406.822C629.688 406.822 634.953 402.688 639.806 405.839C644.659 408.99 651.744 408.596 652.756 408.791" fill="url(#paint24_linear_11230_752)"/>
<path d="M688.853 398.212C684.948 406.463 675.362 404.339 675.362 404.339C674.864 403.87 671.764 403.085 669.415 402.542C667.905 402.192 666.706 401.959 666.706 401.959L670 397.264L672.469 397.784L676.152 398.557C676.152 398.557 692.758 389.959 688.853 398.212Z" fill="#F7C4A7"/>
<path opacity="0.08" d="M688.853 398.212C684.948 406.463 675.362 404.339 675.362 404.339C674.864 403.87 671.764 403.085 669.415 402.542C667.905 402.192 666.706 401.959 666.706 401.959L670 397.264L672.469 397.784L676.152 398.557C676.152 398.557 692.758 389.959 688.853 398.212Z" fill="black"/>
<path opacity="0.1" d="M672.469 397.754L669.415 402.527C667.905 402.177 666.706 401.944 666.706 401.944L670 397.25L672.469 397.754Z" fill="black"/>
<path d="M638.235 380.693C638.235 380.693 652.592 403.636 667.961 403.578L672.141 397.043C672.141 397.043 658.074 386.767 656.202 381.408C655.511 379.43 654.087 376.687 652.569 374.015C647.888 365.811 635.31 371.17 638.074 380.188C638.127 380.353 638.18 380.522 638.235 380.693Z" fill="#575988"/>
<path opacity="0.05" d="M638.235 380.693C638.235 380.693 652.592 403.636 667.961 403.578L672.141 397.043C672.141 397.043 658.074 386.767 656.202 381.408C655.511 379.43 654.087 376.687 652.569 374.015C647.888 365.811 635.31 371.17 638.074 380.188C638.127 380.353 638.18 380.522 638.235 380.693Z" fill="black"/>
<path d="M628.889 514.037L629.562 522.008C629.562 522.008 651.612 518.262 651.419 510.773C651.226 503.283 628.889 514.037 628.889 514.037Z" fill="#535461"/>
<path opacity="0.1" d="M628.889 514.037L629.562 522.008C629.562 522.008 651.612 518.262 651.419 510.773C651.226 503.283 628.889 514.037 628.889 514.037Z" fill="black"/>
<path d="M654.695 516.535L654.309 523.452C654.309 523.452 684.93 521.147 683.775 514.618C682.619 508.089 666.443 511.736 666.443 511.736L654.695 516.535Z" fill="#535461"/>
<path d="M655.078 448.925C655.078 448.925 653.268 454.042 650.957 459.918C648.745 465.537 646.077 471.853 644.1 475.045C640.069 481.577 639.484 501.743 639.484 501.743C638.715 505.008 642.564 511.348 642.564 511.348C634.862 519.607 627.736 514.805 627.736 514.805C629.085 512.307 626.774 505.2 626.774 505.2C626.774 505.2 629.854 472.355 631.782 470.82C633.71 469.286 635.245 461.601 635.245 461.601L633.522 435.492L633.127 429.526L649.69 422.034L650.892 427.989L652.062 433.885L655.078 448.925Z" fill="#6A5C99"/>
<path opacity="0.1" d="M655.078 448.925C655.078 448.925 653.268 454.042 650.957 459.918C648.745 465.537 646.077 471.853 644.1 475.045C640.069 481.577 639.484 501.743 639.484 501.743C638.715 505.008 642.564 511.348 642.564 511.348C634.862 519.607 627.736 514.805 627.736 514.805C629.085 512.307 626.774 505.2 626.774 505.2C626.774 505.2 629.854 472.355 631.782 470.82C633.71 469.286 635.245 461.601 635.245 461.601L633.522 435.492L633.127 429.526L649.69 422.034L650.892 427.989L652.062 433.885L655.078 448.925Z" fill="black"/>
<path d="M669.523 512.5C666.057 518.647 653.923 517.877 653.923 517.877V499.82C653.923 499.82 650.456 479.652 652.381 475.042C654.306 470.432 651.612 461.98 651.612 461.98L650.957 459.915L643.102 435.163L640.827 427.986H666.826C666.826 427.986 666.826 429.214 666.826 431.215C666.858 438.897 667.016 457.948 667.783 462.368C668.745 467.938 666.048 471.588 666.048 471.588C666.048 471.588 667.589 494.251 666.241 501.346C664.892 508.442 669.523 512.5 669.523 512.5Z" fill="#6A5C99"/>
<path d="M648.146 343.67C648.146 343.67 644.1 354.809 636.012 358.841C627.924 362.873 649.301 364.028 649.301 364.028C649.301 364.028 652.767 355.567 660.663 349.621L648.146 343.67Z" fill="#F7C4A7"/>
<path opacity="0.1" d="M666.835 431.218C663.611 431.842 657.913 432.939 652.062 433.885C649.003 434.381 645.905 434.836 643.103 435.166C638.794 435.673 635.187 435.889 633.517 435.489L633.122 429.523L649.684 422.031L650.892 427.988H666.838C666.838 427.988 666.826 429.217 666.835 431.218Z" fill="black"/>
<path d="M669.523 430.092C669.523 430.092 636.977 436.802 632.934 434.702C628.892 432.601 627.926 427.209 629.082 421.258C630.237 415.306 629.082 400.514 626.964 381.69C625.896 372.211 628.248 365.851 630.846 361.869C631.965 360.164 633.492 358.764 635.29 357.796C637.088 356.828 639.1 356.323 641.143 356.326C644.675 356.313 648.104 357.518 650.848 359.736C651.662 360.398 652.484 360.944 653.154 361.128C653.683 361.271 654.479 361.848 655.371 362.63C659.416 366.208 661.939 371.191 662.424 376.561C662.76 380.138 663.111 384.646 663.284 389.203C663.462 393.092 663.424 396.988 663.169 400.873C662.991 403.717 663.123 406.571 663.564 409.386C665.059 419.79 669.523 430.092 669.523 430.092Z" fill="#575988"/>
<path opacity="0.1" d="M663.562 409.422C651.75 402.072 645.642 381.507 645.642 381.507C645.642 381.329 645.642 381.151 645.621 380.979C645.358 371.549 658.937 369.732 661.242 378.884C661.991 381.866 662.631 384.885 662.766 386.977C662.838 387.745 663.011 388.5 663.281 389.224C663.459 393.113 663.421 397.009 663.167 400.894C662.987 403.742 663.119 406.602 663.562 409.422Z" fill="black"/>
<path opacity="0.1" d="M646.124 350.295C648.043 353.542 649.564 356.816 653.467 357.367C655.374 354.89 657.6 352.673 660.086 350.774L647.569 344.819C647.569 344.819 648.292 346.856 646.124 350.295Z" fill="black"/>
<path d="M655.851 356.346C662.87 356.346 668.561 350.671 668.561 343.67C668.561 336.669 662.87 330.993 655.851 330.993C648.831 330.993 643.141 336.669 643.141 343.67C643.141 350.671 648.831 356.346 655.851 356.346Z" fill="#F7C4A7"/>
<path opacity="0.1" d="M668.414 347.643C668.942 347.664 669.463 347.522 669.906 347.235C670.515 346.783 670.711 345.969 670.848 345.225C671.179 343.474 671.433 341.607 670.848 339.909C670.468 338.786 669.745 337.817 669.222 336.752C668.078 334.418 667.876 331.629 666.25 329.61C665.232 328.347 661.663 329.61 660.168 328.971C656.95 327.594 655.57 324.799 652.077 324.802C650.792 324.769 649.51 324.933 648.274 325.286C646.712 325.777 645.331 326.716 644.05 327.731C641.815 329.502 639.639 331.932 639.838 334.774C639.967 336.589 641.049 338.176 641.687 339.88C642.757 342.733 642.564 345.928 641.789 348.874C641.461 350.129 641.084 351.629 641.956 352.591C642.5 353.189 643.395 353.365 644.194 353.23C644.985 353.053 645.741 352.745 646.431 352.32C647.683 351.64 648.953 350.949 649.965 349.951C650.635 349.289 651.176 348.51 651.814 347.818C653.057 346.499 654.471 345.35 656.017 344.402C657.252 343.646 658.518 344.11 659.82 344.609C662.655 345.683 665.284 347.702 668.414 347.643Z" fill="black"/>
<path d="M668.221 347.451C668.748 347.474 669.27 347.333 669.713 347.048C670.322 346.596 670.518 345.782 670.655 345.038C670.986 343.287 671.24 341.42 670.655 339.722C670.275 338.599 669.552 337.63 669.029 336.566C667.885 334.232 667.683 331.442 666.057 329.423C665.039 328.16 661.669 329.619 660.168 328.977C656.95 327.6 655.377 324.601 651.884 324.601C650.599 324.568 649.317 324.731 648.081 325.085C646.519 325.575 645.138 326.515 643.857 327.53C641.622 329.301 639.446 331.731 639.645 334.573C639.774 336.388 640.856 337.975 641.494 339.678C642.564 342.532 642.371 345.726 641.596 348.673C641.268 349.928 640.891 351.427 641.763 352.39C642.307 352.988 643.202 353.163 644.001 353.029C644.792 352.851 645.548 352.544 646.238 352.119C647.49 351.439 648.76 350.748 649.772 349.75C650.442 349.087 650.983 348.308 651.621 347.617C652.878 346.299 654.305 345.154 655.865 344.212C657.1 343.457 658.366 343.921 659.668 344.419C662.462 345.484 665.091 347.509 668.221 347.451Z" fill="#632652"/>
<path opacity="0.05" d="M663.561 409.421C663.125 406.609 662.996 403.757 663.178 400.917C663.432 397.032 663.471 393.136 663.292 389.247C663.12 384.69 662.769 380.185 662.432 376.605C661.948 371.235 659.425 366.251 655.38 362.674C654.487 361.889 653.692 361.315 653.162 361.172C652.492 360.988 651.67 360.442 650.857 359.78C648.122 357.551 651.597 361.892 652.492 362.674C656.538 366.251 659.061 371.235 659.545 376.605C659.882 380.182 660.233 384.69 660.405 389.247C660.583 393.136 660.545 397.032 660.291 400.917C660.112 403.761 660.245 406.615 660.686 409.43C662.184 419.799 666.648 430.11 666.648 430.11C666.648 430.11 644.861 434.608 634.725 435.09C642.67 435.673 669.535 430.11 669.535 430.11C669.535 430.11 665.059 419.79 663.561 409.421Z" fill="black"/>
<path d="M690.128 411.28C684.158 418.194 675.502 413.585 675.502 413.585C675.151 413.001 672.372 411.417 670.237 410.271C668.877 409.532 667.785 408.975 667.785 408.975L672.214 405.325L674.455 406.492L677.804 408.211C677.804 408.211 696.099 404.365 690.128 411.28Z" fill="#F7C4A7"/>
<path opacity="0.1" d="M674.461 406.481L670.243 410.273C668.882 409.535 667.791 408.978 667.791 408.978L672.22 405.328L674.461 406.481Z" fill="black"/>
<path d="M646.028 380.932C646.028 380.932 653.73 406.863 668.552 410.895L674.329 405.708C674.329 405.708 663.506 392.062 663.146 386.399C663.008 384.308 662.371 381.285 661.619 378.306C659.314 369.157 645.735 370.972 646.001 380.401C646.011 380.576 646.02 380.753 646.028 380.932Z" fill="#575988"/>
<path opacity="0.05" d="M631.103 406.189C631.103 406.189 636.111 402.154 640.733 405.229C645.355 408.304 652.095 407.919 653.057 408.112" fill="black"/>
<path d="M296.426 90.8H310.826C313.178 90.8 314.906 91.34 316.01 92.42C317.114 93.476 317.666 95.096 317.666 97.28C317.666 98.72 317.354 99.896 316.73 100.808C316.106 101.696 315.338 102.32 314.426 102.68C316.37 103.208 317.69 104.504 318.386 106.568C318.626 107.312 318.746 108.176 318.746 109.16C318.746 111.512 318.194 113.24 317.09 114.344C315.986 115.448 314.258 116 311.906 116H296.426V90.8ZM312.266 108.08C312.266 106.64 311.546 105.92 310.106 105.92H302.906V110.96H310.106C311.546 110.96 312.266 110.24 312.266 108.8V108.08ZM311.186 98C311.186 96.56 310.466 95.84 309.026 95.84H302.906V100.88H309.026C310.466 100.88 311.186 100.16 311.186 98.72V98ZM341.964 116H321.984V90.8H341.964V95.84H328.464V100.7H339.084V105.74H328.464V110.96H341.964V116ZM344.08 110.78C350.656 111.14 355.108 111.32 357.436 111.32C357.988 111.32 358.42 111.164 358.732 110.852C359.068 110.516 359.236 110.072 359.236 109.52V106.28H350.956C348.436 106.28 346.6 105.716 345.448 104.588C344.32 103.436 343.756 101.6 343.756 99.08V98C343.756 95.48 344.32 93.656 345.448 92.528C346.6 91.376 348.436 90.8 350.956 90.8H363.592V95.84H352.396C350.956 95.84 350.236 96.56 350.236 98V98.72C350.236 100.16 350.956 100.88 352.396 100.88H358.876C361.228 100.88 362.956 101.432 364.06 102.536C365.164 103.64 365.716 105.368 365.716 107.72V109.52C365.716 111.872 365.164 113.6 364.06 114.704C362.956 115.808 361.228 116.36 358.876 116.36C357.652 116.36 356.356 116.336 354.988 116.288L351.676 116.144C349.228 116.024 346.696 115.856 344.08 115.64V110.78ZM379.4 116H372.92V95.84H365.36V90.8H386.96V95.84H379.4V116ZM399.521 110.78C406.097 111.14 410.549 111.32 412.877 111.32C413.429 111.32 413.861 111.164 414.173 110.852C414.509 110.516 414.677 110.072 414.677 109.52V106.28H406.397C403.877 106.28 402.041 105.716 400.889 104.588C399.761 103.436 399.197 101.6 399.197 99.08V98C399.197 95.48 399.761 93.656 400.889 92.528C402.041 91.376 403.877 90.8 406.397 90.8H419.033V95.84H407.837C406.397 95.84 405.677 96.56 405.677 98V98.72C405.677 100.16 406.397 100.88 407.837 100.88H414.317C416.669 100.88 418.397 101.432 419.501 102.536C420.605 103.64 421.157 105.368 421.157 107.72V109.52C421.157 111.872 420.605 113.6 419.501 114.704C418.397 115.808 416.669 116.36 414.317 116.36C413.093 116.36 411.797 116.336 410.429 116.288L407.117 116.144C404.669 116.024 402.137 115.856 399.521 115.64V110.78ZM443.834 115.64C438.482 116.12 434.042 116.36 430.514 116.36C428.162 116.36 426.434 115.808 425.33 114.704C424.226 113.6 423.674 111.872 423.674 109.52V98C423.674 95.48 424.238 93.656 425.366 92.528C426.518 91.376 428.354 90.8 430.874 90.8H443.834V95.84H432.314C430.874 95.84 430.154 96.56 430.154 98V109.52C430.154 110.072 430.31 110.516 430.622 110.852C430.958 111.164 431.378 111.32 431.882 111.32C432.386 111.32 432.938 111.32 433.538 111.32C434.138 111.296 434.762 111.272 435.41 111.248C436.058 111.224 436.706 111.2 437.354 111.176C438.026 111.152 438.878 111.104 439.91 111.032C440.966 110.96 442.274 110.876 443.834 110.78V115.64ZM462.919 97.64C462.919 96.2 462.199 95.48 460.759 95.48H454.639C453.199 95.48 452.479 96.2 452.479 97.64V109.16C452.479 110.6 453.199 111.32 454.639 111.32H460.759C462.199 111.32 462.919 110.6 462.919 109.16V97.64ZM469.399 109.16C469.399 111.68 468.823 113.516 467.671 114.668C466.543 115.796 464.719 116.36 462.199 116.36H453.199C450.679 116.36 448.843 115.796 447.691 114.668C446.563 113.516 445.999 111.68 445.999 109.16V97.64C445.999 95.12 446.563 93.296 447.691 92.168C448.843 91.016 450.679 90.44 453.199 90.44H462.199C464.719 90.44 466.543 91.016 467.671 92.168C468.823 93.296 469.399 95.12 469.399 97.64V109.16ZM473.015 90.8H488.135C490.655 90.8 492.479 91.376 493.607 92.528C494.759 93.656 495.335 95.48 495.335 98V101.24C495.335 103.232 494.999 104.78 494.327 105.884C493.679 106.988 492.635 107.72 491.195 108.08L495.695 116H488.675L484.535 108.44H479.495V116H473.015V90.8ZM488.855 98C488.855 96.56 488.135 95.84 486.695 95.84H479.495V103.4H486.695C488.135 103.4 488.855 102.68 488.855 101.24V98ZM518.906 116H498.926V90.8H518.906V95.84H505.406V100.7H516.026V105.74H505.406V110.96H518.906V116ZM521.021 110.78C527.597 111.14 532.049 111.32 534.377 111.32C534.929 111.32 535.361 111.164 535.673 110.852C536.009 110.516 536.177 110.072 536.177 109.52V106.28H527.897C525.377 106.28 523.541 105.716 522.389 104.588C521.261 103.436 520.697 101.6 520.697 99.08V98C520.697 95.48 521.261 93.656 522.389 92.528C523.541 91.376 525.377 90.8 527.897 90.8H540.533V95.84H529.337C527.897 95.84 527.177 96.56 527.177 98V98.72C527.177 100.16 527.897 100.88 529.337 100.88H535.817C538.169 100.88 539.897 101.432 541.001 102.536C542.105 103.64 542.657 105.368 542.657 107.72V109.52C542.657 111.872 542.105 113.6 541.001 114.704C539.897 115.808 538.169 116.36 535.817 116.36C534.593 116.36 533.297 116.336 531.929 116.288L528.617 116.144C526.169 116.024 523.637 115.856 521.021 115.64V110.78Z" fill="#CCCCCC"/>
<path d="M238.907 521L245 518.914L239.992 494L231 497.08L238.907 521Z" fill="#FFB6B6"/>
<path d="M237 519.367L238.692 518.81L244.393 514L248.836 515.465L248.837 515.465C250.837 514.805 253.023 514.952 254.914 515.872C256.804 516.792 258.244 518.41 258.918 520.37L259 520.61L239.62 527L237 519.367Z" fill="#2F2E41"/>
<path d="M210 516.555L215.863 518L224 495.131L215.347 493L210 516.555Z" fill="#FFB6B6"/>
<path d="M207.969 514.719L209.777 515.116L217.516 514L220.621 517.497L220.622 517.497C222.76 517.967 224.61 519.207 225.764 520.943C226.919 522.679 227.283 524.771 226.778 526.757L226.716 527L206 522.45L207.969 514.719Z" fill="#2F2E41"/>
<path d="M156 513H167V495H156V513Z" fill="#CACACA"/>
<path d="M166.737 504.726L165.321 506.812L191.796 524.778L193.212 522.691L166.737 504.726Z" fill="#CACACA"/>
<path d="M156.811 504.726L130.335 522.691L131.751 524.778L158.227 506.812L156.811 504.726Z" fill="#CACACA"/>
<path d="M192.5 527C194.433 527 196 525.433 196 523.5C196 521.567 194.433 520 192.5 520C190.567 520 189 521.567 189 523.5C189 525.433 190.567 527 192.5 527Z" fill="#CACACA"/>
<path d="M161.5 527C163.433 527 165 525.433 165 523.5C165 521.567 163.433 520 161.5 520C159.567 520 158 521.567 158 523.5C158 525.433 159.567 527 161.5 527Z" fill="#CACACA"/>
<path d="M131.5 527C133.433 527 135 525.433 135 523.5C135 521.567 133.433 520 131.5 520C129.567 520 128 521.567 128 523.5C128 525.433 129.567 527 131.5 527Z" fill="#CACACA"/>
<path d="M163 506H160V524H163V506Z" fill="#CACACA"/>
<path d="M159 503H164V479H159V503Z" fill="#CACACA"/>
<path d="M138 482.93V477.07C138.001 475.991 138.41 474.956 139.137 474.193C139.863 473.43 140.849 473.001 141.876 473H178.124C179.151 473.001 180.137 473.43 180.863 474.193C181.59 474.956 181.999 475.991 182 477.07V482.93C181.999 484.009 181.59 485.044 180.863 485.807C180.137 486.57 179.151 486.999 178.124 487H141.876C140.849 486.999 139.863 486.57 139.137 485.807C138.41 485.044 138.001 484.009 138 482.93Z" fill="#3F3D56"/>
<path d="M115.705 472.129L91.7902 431.485C91.0124 430.16 90.7983 428.584 91.1947 427.103C91.5911 425.622 92.5657 424.356 93.9047 423.585L95.3025 422.781C96.6432 422.012 98.2377 421.801 99.7362 422.192C101.235 422.584 102.515 423.548 103.295 424.871L127.21 465.515C127.988 466.84 128.202 468.416 127.805 469.897C127.409 471.378 126.434 472.644 125.095 473.415L123.698 474.219C122.357 474.988 120.762 475.199 119.264 474.808C117.765 474.416 116.485 473.452 115.705 472.129V472.129Z" fill="#3F3D56"/>
<path d="M138.035 483C132.988 482.994 128.15 480.885 124.582 477.135C121.013 473.386 119.006 468.302 119 463H121.058C121.058 466.268 121.913 469.472 123.528 472.264C125.143 475.057 127.458 477.329 130.218 478.834C132.979 480.338 136.079 481.018 139.182 480.797C142.285 480.577 145.271 479.465 147.813 477.584L149 479.35C145.794 481.733 141.962 483.009 138.035 483V483Z" fill="#3F3D56"/>
<path d="M159.881 452.827C159.881 452.827 218.729 434.962 227.661 457.031C236.593 479.1 245 504.322 245 504.322L233.441 508L210.848 470.167C210.848 470.167 156.39 483.829 145 467.803L159.881 452.827Z" fill="#2F2E41"/>
<path d="M117.281 409.041L103.626 408L101 424.65C101 424.65 117.806 467.837 146.691 472L174 447.545L143.755 436.38L117.281 409.041Z" fill="#6C63FF"/>
<path d="M115.859 398.692C124.664 394.297 128.238 383.596 123.842 374.792C119.447 365.987 108.746 362.413 99.9419 366.809C91.1374 371.204 87.5632 381.905 91.9587 390.709C96.3541 399.514 107.055 403.088 115.859 398.692Z" fill="#FFB8B8"/>
<path d="M112.793 400.883C111.98 401.573 110.754 401.936 109.077 401.989C104.142 402.143 99.2931 400.653 95.2745 397.745C91.2559 394.838 88.2893 390.674 86.8299 385.893C86.0955 383.488 85.4736 379.899 86.6806 376.463C87.5486 373.994 89.2529 371.923 90.7822 370.176C92.106 368.663 93.4875 367.181 94.8888 365.772C96.5628 364.087 98.5583 362.216 101.061 361.337C102.895 360.694 104.861 360.636 106.762 360.581C107.424 360.561 108.11 360.542 108.775 360.497C110.431 360.44 112.056 360.029 113.544 359.291C113.85 359.125 114.187 359.028 114.533 359.005C114.879 358.982 115.225 359.035 115.549 359.16C115.879 359.287 116.178 359.484 116.427 359.737C116.675 359.991 116.867 360.296 116.989 360.631C117.229 361.291 117.446 361.885 118.181 362.105C118.446 362.177 118.725 362.182 118.992 362.12C119.26 362.058 119.508 361.93 119.716 361.748C119.825 361.652 119.957 361.585 120.099 361.554C120.24 361.523 120.387 361.528 120.526 361.568C120.666 361.608 120.793 361.681 120.898 361.782C121.003 361.882 121.083 362.008 121.129 362.147L121.189 362.328C121.34 362.222 121.514 362.156 121.696 362.133C121.878 362.111 122.062 362.134 122.234 362.2C122.482 362.291 122.692 362.464 122.83 362.692C122.967 362.92 123.024 363.189 122.991 363.454C122.745 365.641 121.899 367.714 120.549 369.438C119.616 370.606 118.465 371.577 117.163 372.295L116.954 372.412L116.81 372.192C110.953 374.385 109.164 380.605 109.453 385.737L108.941 385.807C108.901 385.64 108.829 385.483 108.728 385.346C108.627 385.208 108.499 385.093 108.353 385.006C108.183 384.897 107.995 384.823 107.797 384.789C107.6 384.754 107.397 384.759 107.202 384.803C106.83 384.922 106.501 385.15 106.257 385.458C106.012 385.766 105.863 386.14 105.829 386.534C105.802 386.945 105.86 387.358 106 387.745C106.139 388.133 106.356 388.486 106.638 388.784C107.251 389.401 107.959 389.913 108.734 390.299C109.085 390.5 109.449 390.708 109.794 390.937C111.743 392.241 113.15 394.228 113.744 396.517C114.012 397.565 114.165 399.06 113.378 400.231C113.214 400.475 113.017 400.694 112.793 400.883V400.883Z" fill="#2F2E41"/>
<path d="M230 464.393C227.204 487.954 221.223 510 221.223 510L210 508.43L212.556 464" fill="#2F2E41"/>
<path d="M121.491 386C120.979 386 120.48 385.826 120.068 385.504C119.655 385.182 119.351 384.729 119.199 384.211C112.24 380.371 115.919 377.663 116.398 374.614C116.305 374.296 116.273 373.961 116.302 373.63C116.331 373.298 116.422 372.975 116.569 372.68C116.716 372.386 116.916 372.125 117.158 371.912C117.4 371.699 117.68 371.539 117.981 371.441L125.095 369.113C125.702 368.914 126.359 368.98 126.921 369.294C127.483 369.608 127.905 370.145 128.093 370.788L130.894 380.385C131.081 381.028 131.019 381.723 130.722 382.318C130.426 382.913 129.918 383.359 129.311 383.559L122.197 385.887C121.968 385.962 121.73 386 121.491 386V386Z" fill="#3F3D56"/>
<path d="M126.395 369C126.934 368.996 127.459 369.164 127.894 369.478C128.328 369.792 128.648 370.237 128.807 370.745L131.875 380.26C132.082 380.898 132.03 381.59 131.73 382.19C131.585 382.484 131.382 382.747 131.134 382.963C130.885 383.18 130.596 383.345 130.282 383.449L128.618 384L124 369.676L125.663 369.125C125.899 369.046 126.146 369.004 126.395 369V369Z" fill="#6C63FF"/>
<path d="M88.3581 391C88.0173 391 87.6856 390.89 87.4112 390.686C87.1369 390.482 86.9345 390.195 86.8336 389.867L86.0711 387.379C86.0092 387.177 85.9874 386.965 86.0069 386.755C86.0264 386.545 86.0867 386.341 86.1845 386.154C86.2822 385.967 86.4155 385.802 86.5767 385.667C86.7379 385.532 86.9239 385.431 87.124 385.368L120.172 375.072C120.372 375.009 120.583 374.987 120.791 375.007C121 375.027 121.203 375.087 121.388 375.186C121.573 375.285 121.737 375.419 121.871 375.582C122.005 375.744 122.105 375.932 122.167 376.133L122.929 378.621C123.054 379.028 123.013 379.469 122.815 379.846C122.618 380.223 122.28 380.505 121.877 380.631L88.8282 390.928C88.676 390.976 88.5175 391 88.3581 391V391Z" fill="#3F3D56"/>
<path d="M177.846 468H173.154C172.551 468 171.972 467.755 171.534 467.316C171.096 466.877 170.833 466.276 170.8 465.638L170.004 450.641C169.986 450.301 170.033 449.961 170.143 449.642C170.253 449.322 170.424 449.03 170.644 448.782C170.865 448.535 171.13 448.338 171.425 448.204C171.719 448.069 172.037 448 172.358 448H178.642C178.963 448 179.281 448.069 179.575 448.204C179.87 448.338 180.136 448.535 180.356 448.782C180.576 449.03 180.747 449.322 180.857 449.642C180.967 449.961 181.014 450.302 180.996 450.641L180.2 465.638C180.167 466.276 179.904 466.877 179.466 467.316C179.028 467.755 178.449 468 177.846 468Z" fill="#E4E4E4"/>
<path d="M181 452L180.938 453H170.063L170 452H181Z" fill="#CACACA"/>
<path d="M181 454L180.939 455H170.062L170 454H181Z" fill="#CACACA"/>
<path d="M181 457L180.934 458H170.066L170 457H181Z" fill="#CACACA"/>
<path d="M181 459L180.933 460H170.068L170 459H181Z" fill="#CACACA"/>
<path d="M181 462L180.94 463H171.06L171 462H181Z" fill="#CACACA"/>
<path d="M181 464L180.936 465H171.065L171 464H181Z" fill="#CACACA"/>
<path d="M176 449C177.105 449 178 448.776 178 448.5C178 448.224 177.105 448 176 448C174.895 448 174 448.224 174 448.5C174 448.776 174.895 449 176 449Z" fill="#CACACA"/>
<path d="M175.571 449C175.515 449 175.459 448.989 175.407 448.969C175.355 448.948 175.308 448.918 175.268 448.88C175.228 448.842 175.196 448.797 175.175 448.747C175.153 448.697 175.142 448.644 175.142 448.59V440.82H172.427C172.314 440.82 172.205 440.777 172.125 440.7C172.045 440.623 172 440.519 172 440.41C172 440.302 172.045 440.198 172.125 440.121C172.205 440.044 172.314 440 172.427 440H175.571C175.627 440 175.683 440.011 175.735 440.031C175.787 440.052 175.835 440.082 175.874 440.12C175.914 440.158 175.946 440.203 175.967 440.253C175.989 440.303 176 440.356 176 440.41V448.59C176 448.644 175.989 448.697 175.967 448.747C175.946 448.797 175.914 448.842 175.874 448.88C175.835 448.918 175.787 448.948 175.735 448.969C175.683 448.989 175.627 449 175.571 449V449Z" fill="#CACACA"/>
<path d="M174.058 455.751C173.47 455.272 172.783 454.926 172.045 454.739C171.308 454.552 170.538 454.527 169.79 454.668C169.042 454.809 168.334 455.11 167.717 455.552C167.099 455.994 166.586 456.565 166.214 457.226L148 454L151.803 462.778L168.517 464.495C169.674 465.043 170.993 465.149 172.223 464.794C173.454 464.439 174.511 463.648 175.194 462.57C175.877 461.492 176.139 460.203 175.93 458.946C175.72 457.689 175.054 456.553 174.058 455.751H174.058Z" fill="#FFB6B6"/>
<path d="M163 465L128.9 462.365L128.832 462.238C128.702 461.996 115.782 437.94 113.881 432.421C112.698 429.097 112.707 425.476 113.906 422.159L113.941 422.079L114.018 422.035C115.589 421.15 117.421 420.819 119.21 421.095C120.999 421.37 122.64 422.237 123.86 423.552C129.72 429.932 133.991 437.563 136.335 445.842L137.664 450.554L162.061 455.925L163 465Z" fill="#6C63FF"/>
<path d="M124.807 375C124.556 375 124.312 374.925 124.108 374.786C123.905 374.647 123.753 374.451 123.673 374.225L123.064 372.503C123.013 372.362 122.992 372.212 123.002 372.062C123.013 371.913 123.054 371.767 123.123 371.633C123.193 371.499 123.29 371.379 123.409 371.28C123.527 371.182 123.665 371.107 123.815 371.059C123.964 371.011 124.122 370.992 124.279 371.003C124.436 371.013 124.59 371.053 124.731 371.12C124.871 371.188 124.997 371.28 125.1 371.394C125.203 371.507 125.281 371.639 125.33 371.781L125.938 373.503C126.039 373.789 126.016 374.1 125.875 374.37C125.734 374.639 125.486 374.845 125.186 374.941H125.185C125.063 374.98 124.935 375 124.807 375V375Z" fill="#3F3D56"/>
<path d="M126.356 381C126 380.999 125.653 380.899 125.369 380.713C125.084 380.528 124.878 380.268 124.78 379.973L124.062 377.798C123.944 377.438 123.996 377.052 124.208 376.725C124.42 376.397 124.774 376.156 125.192 376.054C125.611 375.951 126.059 375.996 126.439 376.178C126.82 376.361 127.1 376.665 127.219 377.025L127.937 379.2C127.996 379.379 128.014 379.565 127.989 379.75C127.964 379.934 127.897 380.112 127.792 380.274C127.687 380.437 127.546 380.579 127.377 380.694C127.208 380.81 127.015 380.895 126.807 380.946C126.661 380.982 126.509 381 126.356 381V381Z" fill="#3F3D56"/>
<defs>
<linearGradient id="paint0_linear_11230_752" x1="706.132" y1="500.818" x2="706.132" y2="284.923" gradientUnits="userSpaceOnUse">
<stop stop-color="#808080" stop-opacity="0.25"/>
<stop offset="0.54" stop-color="#808080" stop-opacity="0.12"/>
<stop offset="1" stop-color="#808080" stop-opacity="0.1"/>
</linearGradient>
<linearGradient id="paint1_linear_11230_752" x1="13172.2" y1="4990.26" x2="13172.2" y2="4633.71" gradientUnits="userSpaceOnUse">
<stop stop-color="#808080" stop-opacity="0.25"/>
<stop offset="0.54" stop-color="#808080" stop-opacity="0.12"/>
<stop offset="1" stop-color="#808080" stop-opacity="0.1"/>
</linearGradient>
<linearGradient id="paint2_linear_11230_752" x1="13172.2" y1="4990.26" x2="13172.2" y2="4633.71" gradientUnits="userSpaceOnUse">
<stop stop-color="#808080" stop-opacity="0.25"/>
<stop offset="0.54" stop-color="#808080" stop-opacity="0.12"/>
<stop offset="1" stop-color="#808080" stop-opacity="0.1"/>
</linearGradient>
<linearGradient id="paint3_linear_11230_752" x1="3655.11" y1="2801.04" x2="3655.11" y2="2700.32" gradientUnits="userSpaceOnUse">
<stop stop-color="#808080" stop-opacity="0.25"/>
<stop offset="0.54" stop-color="#808080" stop-opacity="0.12"/>
<stop offset="1" stop-color="#808080" stop-opacity="0.1"/>
</linearGradient>
<linearGradient id="paint4_linear_11230_752" x1="16570.8" y1="15782.7" x2="16570.8" y2="11711" gradientUnits="userSpaceOnUse">
<stop stop-color="#808080" stop-opacity="0.25"/>
<stop offset="0.54" stop-color="#808080" stop-opacity="0.12"/>
<stop offset="1" stop-color="#808080" stop-opacity="0.1"/>
</linearGradient>
<linearGradient id="paint5_linear_11230_752" x1="16570.8" y1="15782.7" x2="16570.8" y2="11711" gradientUnits="userSpaceOnUse">
<stop stop-color="#808080" stop-opacity="0.25"/>
<stop offset="0.54" stop-color="#808080" stop-opacity="0.12"/>
<stop offset="1" stop-color="#808080" stop-opacity="0.1"/>
</linearGradient>
<linearGradient id="paint6_linear_11230_752" x1="9791.22" y1="12796" x2="9791.22" y2="12101.6" gradientUnits="userSpaceOnUse">
<stop stop-color="#808080" stop-opacity="0.25"/>
<stop offset="0.54" stop-color="#808080" stop-opacity="0.12"/>
<stop offset="1" stop-color="#808080" stop-opacity="0.1"/>
</linearGradient>
<linearGradient id="paint7_linear_11230_752" x1="9791.22" y1="12796" x2="9791.22" y2="12101.6" gradientUnits="userSpaceOnUse">
<stop stop-color="#808080" stop-opacity="0.25"/>
<stop offset="0.54" stop-color="#808080" stop-opacity="0.12"/>
<stop offset="1" stop-color="#808080" stop-opacity="0.1"/>
</linearGradient>
<linearGradient id="paint8_linear_11230_752" x1="15867.2" y1="11834.4" x2="15867.2" y2="11251.2" gradientUnits="userSpaceOnUse">
<stop stop-color="#808080" stop-opacity="0.25"/>
<stop offset="0.54" stop-color="#808080" stop-opacity="0.12"/>
<stop offset="1" stop-color="#808080" stop-opacity="0.1"/>
</linearGradient>
<linearGradient id="paint9_linear_11230_752" x1="12220" y1="81753" x2="12220" y2="49828.3" gradientUnits="userSpaceOnUse">
<stop stop-color="#808080" stop-opacity="0.25"/>
<stop offset="0.54" stop-color="#808080" stop-opacity="0.12"/>
<stop offset="1" stop-color="#808080" stop-opacity="0.1"/>
</linearGradient>
<linearGradient id="paint10_linear_11230_752" x1="12220" y1="81753" x2="12220" y2="49828.3" gradientUnits="userSpaceOnUse">
<stop stop-color="#808080" stop-opacity="0.25"/>
<stop offset="0.54" stop-color="#808080" stop-opacity="0.12"/>
<stop offset="1" stop-color="#808080" stop-opacity="0.1"/>
</linearGradient>
<linearGradient id="paint11_linear_11230_752" x1="13935.5" y1="78656.7" x2="13935.5" y2="49540.4" gradientUnits="userSpaceOnUse">
<stop stop-color="#808080" stop-opacity="0.25"/>
<stop offset="0.54" stop-color="#808080" stop-opacity="0.12"/>
<stop offset="1" stop-color="#808080" stop-opacity="0.1"/>
</linearGradient>
<linearGradient id="paint12_linear_11230_752" x1="12126.5" y1="6772.2" x2="12126.5" y2="5279.86" gradientUnits="userSpaceOnUse">
<stop stop-color="#808080" stop-opacity="0.25"/>
<stop offset="0.54" stop-color="#808080" stop-opacity="0.12"/>
<stop offset="1" stop-color="#808080" stop-opacity="0.1"/>
</linearGradient>
<linearGradient id="paint13_linear_11230_752" x1="15590.6" y1="8270.1" x2="15590.6" y2="7597.37" gradientUnits="userSpaceOnUse">
<stop stop-color="#808080" stop-opacity="0.25"/>
<stop offset="0.54" stop-color="#808080" stop-opacity="0.12"/>
<stop offset="1" stop-color="#808080" stop-opacity="0.1"/>
</linearGradient>
<linearGradient id="paint14_linear_11230_752" x1="19325.9" y1="45397.4" x2="19325.9" y2="23054.2" gradientUnits="userSpaceOnUse">
<stop stop-color="#808080" stop-opacity="0.25"/>
<stop offset="0.54" stop-color="#808080" stop-opacity="0.12"/>
<stop offset="1" stop-color="#808080" stop-opacity="0.1"/>
</linearGradient>
<linearGradient id="paint15_linear_11230_752" x1="8919.61" y1="17882.1" x2="8919.61" y2="13076.3" gradientUnits="userSpaceOnUse">
<stop stop-color="#808080" stop-opacity="0.25"/>
<stop offset="0.54" stop-color="#808080" stop-opacity="0.12"/>
<stop offset="1" stop-color="#808080" stop-opacity="0.1"/>
</linearGradient>
<linearGradient id="paint16_linear_11230_752" x1="7005.48" y1="4005.66" x2="7005.48" y2="3438.9" gradientUnits="userSpaceOnUse">
<stop stop-color="#808080" stop-opacity="0.25"/>
<stop offset="0.54" stop-color="#808080" stop-opacity="0.12"/>
<stop offset="1" stop-color="#808080" stop-opacity="0.1"/>
</linearGradient>
<linearGradient id="paint17_linear_11230_752" x1="11298.4" y1="6807.66" x2="11298.4" y2="4493.32" gradientUnits="userSpaceOnUse">
<stop stop-color="#808080" stop-opacity="0.25"/>
<stop offset="0.54" stop-color="#808080" stop-opacity="0.12"/>
<stop offset="1" stop-color="#808080" stop-opacity="0.1"/>
</linearGradient>
<linearGradient id="paint18_linear_11230_752" x1="15214.3" y1="8213.2" x2="15214.3" y2="5294.55" gradientUnits="userSpaceOnUse">
<stop stop-color="#808080" stop-opacity="0.25"/>
<stop offset="0.54" stop-color="#808080" stop-opacity="0.12"/>
<stop offset="1" stop-color="#808080" stop-opacity="0.1"/>
</linearGradient>
<linearGradient id="paint19_linear_11230_752" x1="15191.1" y1="8193.45" x2="15191.1" y2="5274.79" gradientUnits="userSpaceOnUse">
<stop stop-color="#808080" stop-opacity="0.25"/>
<stop offset="0.54" stop-color="#808080" stop-opacity="0.12"/>
<stop offset="1" stop-color="#808080" stop-opacity="0.1"/>
</linearGradient>
<linearGradient id="paint20_linear_11230_752" x1="16362.4" y1="43802.5" x2="16362.4" y2="23012.7" gradientUnits="userSpaceOnUse">
<stop stop-color="#808080" stop-opacity="0.25"/>
<stop offset="0.54" stop-color="#808080" stop-opacity="0.12"/>
<stop offset="1" stop-color="#808080" stop-opacity="0.1"/>
</linearGradient>
<linearGradient id="paint21_linear_11230_752" x1="13740.7" y1="5285.16" x2="13740.7" y2="4941.86" gradientUnits="userSpaceOnUse">
<stop stop-color="#808080" stop-opacity="0.25"/>
<stop offset="0.54" stop-color="#808080" stop-opacity="0.12"/>
<stop offset="1" stop-color="#808080" stop-opacity="0.1"/>
</linearGradient>
<linearGradient id="paint22_linear_11230_752" x1="4160.53" y1="2790.65" x2="4160.53" y2="2702.63" gradientUnits="userSpaceOnUse">
<stop stop-color="#808080" stop-opacity="0.25"/>
<stop offset="0.54" stop-color="#808080" stop-opacity="0.12"/>
<stop offset="1" stop-color="#808080" stop-opacity="0.1"/>
</linearGradient>
<linearGradient id="paint23_linear_11230_752" x1="14307.8" y1="19068" x2="14307.8" y2="13708" gradientUnits="userSpaceOnUse">
<stop stop-color="#808080" stop-opacity="0.25"/>
<stop offset="0.54" stop-color="#808080" stop-opacity="0.12"/>
<stop offset="1" stop-color="#808080" stop-opacity="0.1"/>
</linearGradient>
<linearGradient id="paint24_linear_11230_752" x1="9717.18" y1="2319.88" x2="9717.18" y2="2261.26" gradientUnits="userSpaceOnUse">
<stop stop-color="#808080" stop-opacity="0.25"/>
<stop offset="0.54" stop-color="#808080" stop-opacity="0.12"/>
<stop offset="1" stop-color="#808080" stop-opacity="0.1"/>
</linearGradient>
</defs>
</svg>
