<svg id="svg" version="1.1" xmlns="http://www.w3.org/2000/svg" xmlns:xlink="http://www.w3.org/1999/xlink" width="400" height="391.0233393177738" viewBox="0, 0, 400,391.0233393177738"><g id="svgg"><path id="path0" d="M245.781 16.882 C 244.991 17.040,243.537 17.478,242.549 17.857 C 240.485 18.648,57.063 124.051,54.503 125.917 C 43.108 134.222,47.632 153.621,61.556 156.164 C 65.272 156.843,188.077 156.687,190.992 156.000 C 194.123 155.262,196.550 153.884,198.913 151.501 C 200.909 149.490,262.343 45.117,264.606 39.893 C 269.661 28.222,258.336 14.379,245.781 16.882 M336.266 71.235 C 333.382 71.938,330.087 73.906,328.118 76.103 C 325.854 78.628,264.566 184.268,263.321 187.792 C 262.207 190.945,262.151 196.182,263.200 199.294 C 264.442 202.981,325.859 309.640,328.026 311.873 C 337.037 321.158,354.145 316.173,356.724 303.510 C 357.430 300.043,357.642 85.796,356.941 83.303 C 354.438 74.395,345.265 69.041,336.266 71.235 M60.777 229.638 C 47.831 233.125,43.629 250.150,53.527 259.017 C 55.221 260.534,233.153 364.083,240.215 367.662 C 251.667 373.464,265.171 365.316,265.171 352.603 C 265.171 346.933,267.337 351.028,232.105 290.108 C 198.989 232.847,199.695 233.976,195.724 231.825 C 191.707 229.649,194.279 229.766,143.447 229.439 C 74.997 228.998,63.048 229.026,60.777 229.638 " stroke="none" fill="#2cc48c" fill-rule="evenodd"></path><path id="path1" d="" stroke="none" fill="#30c48c" fill-rule="evenodd"></path><path id="path2" d="" stroke="none" fill="#30c48c" fill-rule="evenodd"></path><path id="path3" d="" stroke="none" fill="#30c48c" fill-rule="evenodd"></path><path id="path4" d="" stroke="none" fill="#30c48c" fill-rule="evenodd"></path></g></svg>